<?xml version="1.0" standalone="no"?>
<!DOCTYPE svg PUBLIC "-//W3C//DTD SVG 1.1//EN" "http://www.w3.org/Graphics/SVG/1.1/DTD/svg11.dtd" >
<svg>
<metadata>
Created by FontForge 20090914 at Fri Mar  9 11:16:03 2012
 By www-data
\(c\) Copyright 1998 E+F Designstudio. ITC Avant Garde is a registered trademark of International Typeface Corporation.
</metadata>
<defs>
<font id="AvantGardeMdITC" horiz-adv-x="500" >
  <font-face 
    font-family="AvantGardeMdITC"
    font-weight="550"
    font-stretch="normal"
    units-per-em="1000"
    panose-1="2 0 6 3 3 0 0 2 0 4"
    ascent="750"
    descent="-250"
    x-height="500"
    cap-height="667"
    bbox="-100 -250 1243 913"
    underline-thickness="20"
    underline-position="-146"
    unicode-range="U+0020-U+FB02"
  />
<missing-glyph horiz-adv-x="280" 
 />
    <glyph glyph-name="fi" unicode="fi" horiz-adv-x="497" 
d="M437 667v-110h-94v110h94zM437 500v-500h-94v500h94zM167 0l-93.998 -0.00195312v415h-44v85h44v23c0 44 16.667 80 50 108c8 6.66699 15.833 12.334 23.5 17.001s16.167 8.33398 25.5 11.001s19.666 4.66699 30.999 6s24.666 2 39.999 2h12v-82h-10
c-26 0 -45.5 -5.5 -58.5 -16.5s-19.5 -26.167 -19.5 -45.5v-23h88v-85h-88v-415z" />
    <glyph glyph-name="fl" unicode="fl" horiz-adv-x="497" 
d="M437 667v-667h-94v667h94zM167 0l-93.998 -0.00195312v415h-44v85h44v23c0 44 16.667 80 50 108c8 6.66699 15.833 12.334 23.5 17.001s16.167 8.33398 25.5 11.001s19.666 4.66699 30.999 6s24.666 2 39.999 2h12v-82h-10c-26 0 -45.5 -5.5 -58.5 -16.5
s-19.5 -26.167 -19.5 -45.5v-23h88v-85h-88v-415z" />
    <glyph glyph-name=".notdef" horiz-adv-x="280" 
 />
    <glyph glyph-name="space" unicode=" " horiz-adv-x="250" 
 />
    <glyph glyph-name="quotedbl" unicode="&#x22;" horiz-adv-x="354" 
d="M288 399h-66l-17 268h100zM132 399h-66l-17 268h100z" />
    <glyph glyph-name="numbersign" unicode="#" horiz-adv-x="600" 
d="M375 399h-120l-18 -118h120zM556 281l-12 -82h-108l-31 -199h-92l31 199h-119l-32 -199h-91l31 199h-108l12 82h109l18 118h-108l12 82h108l29 186h92l-29 -186h119l29 186h93l-29 -186h106l-13 -82h-106l-18 -118h107z" />
    <glyph glyph-name="dollar" unicode="$" 
d="M198 742h84.999v-101c40.667 -7.33301 72.167 -24.166 94.5 -50.499s35.166 -61.5 38.499 -105.5h-84c-8 50.667 -34.667 76 -80 76c-25.333 0 -45.666 -7.83301 -60.999 -23.5s-23 -36.167 -23 -61.5c0 -12.667 1.33301 -23.167 4 -31.5s8 -15.833 16 -22.5
s19 -12.5 33 -17.5s32 -10.5 54 -16.5c32 -8.66699 56.667 -18.334 74 -29.001s32.666 -25.667 45.999 -45c20 -30 30 -65.333 30 -106c0 -45.333 -12.5 -84.166 -37.5 -116.499s-59.833 -54.166 -104.5 -65.499v-100h-85v100c-23.333 5.33301 -43 12.666 -59 21.999
s-31 21.666 -45 36.999c-15.333 17.333 -26.5 35.166 -33.5 53.499s-11.167 41.166 -12.5 68.499h83c2.66699 -31.333 13.167 -56 31.5 -74s42.5 -27 72.5 -27c28 0 51.167 9.66699 69.5 29s27.5 44 27.5 74c0 27.333 -8.66699 48.833 -26 64.5s-47 28.834 -89 39.501
c-16 4 -29.833 8 -41.5 12s-21.667 8.33301 -30 13s-15.666 10.334 -21.999 17.001s-12.5 14.334 -18.5 23.001c-9.33301 13.333 -16.666 28.666 -21.999 45.999s-8 34.666 -8 51.999c0 40.667 11 75.834 33 105.501s52 49.5 90 59.5v101z" />
    <glyph glyph-name="percent" unicode="%" horiz-adv-x="877" 
d="M668 56c14 0 27.167 2.66602 39.5 7.99902s23 12.5 32 21.5s16.167 19.833 21.5 32.5s8 26 8 40s-2.66699 27.167 -8 39.5s-12.5 23 -21.5 32s-19.667 16.167 -32 21.5s-25.5 8 -39.5 8s-27 -2.66699 -39 -8s-22.5 -12.666 -31.5 -21.999s-16.167 -20 -21.5 -32
s-8 -25 -8 -39s2.66699 -27.333 8 -40s12.5 -23.5 21.5 -32.5s19.5 -16.167 31.5 -21.5s25 -8 39 -8zM208 407.999c14 0 27.167 2.66699 39.5 8s23 12.666 32 21.999s16.167 20.166 21.5 32.499s8 25.5 8 39.5s-2.66699 27.167 -8 39.5s-12.5 23 -21.5 32
s-19.667 16.167 -32 21.5s-25.5 8 -39.5 8s-27 -2.66699 -39 -8s-22.5 -12.5 -31.5 -21.5s-16.167 -19.667 -21.5 -32s-8 -25.5 -8 -39.5s2.66699 -27.167 8 -39.5s12.5 -23.166 21.5 -32.499s19.5 -16.666 31.5 -21.999s25 -8 39 -8zM329 -0.000976562h-58l279 667h56z
M668 327.999c24 0 46.667 -4.5 68 -13.5s40 -21.167 56 -36.5s28.5 -33.166 37.5 -53.499s13.5 -42.166 13.5 -65.499c0 -24 -4.5 -46.333 -13.5 -67s-21.5 -38.834 -37.5 -54.501s-34.667 -28 -56 -37s-44 -13.5 -68 -13.5s-46.5 4.5 -67.5 13.5s-39.5 21.333 -55.5 37
s-28.5 33.834 -37.5 54.501s-13.5 43 -13.5 67c0 23.333 4.5 45.166 13.5 65.499s21.5 38.166 37.5 53.499s34.5 27.5 55.5 36.5s43.5 13.5 67.5 13.5zM208 679.999c24 0 46.667 -4.33105 68 -12.998s40 -20.667 56 -36s28.5 -33.333 37.5 -54s13.5 -42.667 13.5 -66
c0 -24 -4.5 -46.333 -13.5 -67s-21.5 -38.834 -37.5 -54.501s-34.667 -28 -56 -37s-44 -13.5 -68 -13.5s-46.5 4.5 -67.5 13.5s-39.5 21.333 -55.5 37s-28.5 33.834 -37.5 54.501s-13.5 43 -13.5 67c0 23.333 4.5 45.166 13.5 65.499s21.5 38.166 37.5 53.499
s34.5 27.5 55.5 36.5s43.5 13.5 67.5 13.5z" />
    <glyph glyph-name="ampersand" unicode="&#x26;" horiz-adv-x="627" 
d="M226 309c-34 -18.667 -58.333 -37.5 -73 -56.5s-22 -41.167 -22 -66.5c0 -30 10.167 -54.833 30.5 -74.5s45.833 -29.5 76.5 -29.5c54.667 0 97.667 29.667 129 89zM253 416c17.333 10 31.334 18.666 42.001 25.999s19.167 14.5 25.5 21.5s10.666 14.5 12.999 22.5
s3.5 17 3.5 27c0 20 -6.83301 36.833 -20.5 50.5s-30.5 20.5 -50.5 20.5c-20.667 0 -37.667 -7.16699 -51 -21.5s-20 -32.166 -20 -53.499c0 -13.333 2.33301 -24.833 7 -34.5s14 -21.5 28 -35.5zM591.001 409.999l-112 -219.999l134 -138l-65 -65l-116 117l-20 -28.5
c-6 -8.33301 -12 -15.666 -18 -21.999s-12.333 -12 -19 -17s-14 -10.167 -22 -15.5c-18 -12 -36.333 -20.667 -55 -26s-38.667 -8 -60 -8c-28.667 0 -55.5 5.16699 -80.5 15.5s-46.667 24.333 -65 42s-32.666 38.667 -42.999 63s-15.5 50.5 -15.5 78.5
c0 42.667 11.5 81.167 34.5 115.5s54.167 59.166 93.5 74.499c-12.667 13.333 -23.167 25.333 -31.5 36s-14.833 21 -19.5 31s-8 20.333 -10 31s-3 22.334 -3 35.001c0 24 4.33301 46.5 13 67.5s20.667 39.167 36 54.5s33.166 27.333 53.499 36s42.5 13 66.5 13
c23.333 0 45 -4.33301 65 -13s37.5 -20.834 52.5 -36.501s26.833 -33.834 35.5 -54.501s13 -43 13 -67c0 -70.667 -37.333 -124 -112 -160l88 -87l74 148h108z" />
    <glyph glyph-name="quotesingle" unicode="'" horiz-adv-x="198" 
d="M132 399h-66l-17 268h100z" />
    <glyph glyph-name="parenleft" unicode="(" horiz-adv-x="326" 
d="M223 3l16 -16.5039c4.66699 -5 10 -10.167 16 -15.5s13 -11.166 21 -17.499l30 -23.5v-110c-18.667 8.66699 -37.5 19.667 -56.5 33s-37.333 28 -55 44s-34.167 33.333 -49.5 52s-29 37.667 -41 57c-21.333 35.333 -38.333 74.833 -51 118.5s-19 86.5 -19 128.5
c0 44 6.5 87.333 19.5 130s31.167 82.834 54.5 120.501s51.333 71.667 84 102s68.667 55.166 108 74.499v-109l-47 -41.5c-13.333 -12.333 -25 -24.166 -35 -35.499s-18.667 -22.666 -26 -33.999s-14.333 -23.666 -21 -36.999c-26.667 -50.667 -40 -107 -40 -169
c0 -46.667 7.83301 -91.667 23.5 -135s38.5 -82 68.5 -116z" />
    <glyph glyph-name="parenright" unicode=")" horiz-adv-x="326" 
d="M102 497l-15.001 16.5059c-4.66699 5 -10 10.167 -16 15.5s-13 11.166 -21 17.499l-30 23.5v110c19.333 -8.66699 38.333 -19.667 57 -33s36.834 -28 54.501 -44s34.167 -33.333 49.5 -52s29 -37.667 41 -57c22 -35.333 39.167 -74.833 51.5 -118.5
s18.5 -86.5 18.5 -128.5c0 -44 -6.5 -87.333 -19.5 -130s-31.167 -82.834 -54.5 -120.501s-51.333 -71.667 -84 -102s-69 -55.166 -109 -74.499v109c18.667 15.333 34.667 29.166 48 41.499s25 24.166 35 35.499s18.667 22.666 26 33.999s14.333 23.666 21 36.999
c26.667 50.667 40 106.667 40 168c0 47.333 -8 92.666 -24 135.999s-39 82 -69 116z" />
    <glyph glyph-name="asterisk" unicode="*" 
d="M220 537l-2 130h64l-2 -130l122 42l20 -60l-124 -38l78 -104l-51 -37l-75 106l-75 -107l-51 38l78 104l-124 38l20 60z" />
    <glyph glyph-name="plus" unicode="+" 
d="M33 377h172v165h90v-165h172v-84h-172v-165h-90v165h-172v84z" />
    <glyph glyph-name="comma" unicode="," horiz-adv-x="213" 
d="M153 110v-100c0 -36 -7.5 -64.167 -22.5 -84.5s-38.5 -33.833 -70.5 -40.5v56c12 5.33301 20.5 11.833 25.5 19.5s7.5 18.167 7.5 31.5v8h-33v110h93z" />
    <glyph glyph-name="hyphen" unicode="-" horiz-adv-x="251" 
d="M251 210h-251v93h251v-93z" />
    <glyph glyph-name="hyphen" unicode="&#xad;" horiz-adv-x="251" 
d="M251 210h-251v93h251v-93z" />
    <glyph glyph-name="period" unicode="." horiz-adv-x="213" 
d="M153 0h-93v110h93v-110z" />
    <glyph glyph-name="slash" unicode="/" horiz-adv-x="402" 
d="M274 667h82l-285 -834h-81z" />
    <glyph glyph-name="zero" unicode="0" 
d="M251 595c-38 0 -67.999 -12.168 -89.999 -36.501s-33 -57.166 -33 -98.499v-246c0 -44 11 -78.667 33 -104s52.333 -38 91 -38c37.333 0 66.666 12.667 87.999 38s32 60 32 104v246c0 42 -10.667 75 -32 99s-51 36 -89 36zM252.001 679.999
c30.667 0 58.999 -5.49902 84.999 -16.499s48.5 -26.333 67.5 -46s34 -43 45 -70s16.5 -56.167 16.5 -87.5v-246c0 -42 -6 -76.667 -18 -104s-32 -52 -60 -74c-40.667 -32.667 -87 -49 -139 -49c-38.667 0 -74.667 9.5 -108 28.5s-59.666 45.5 -78.999 79.5
c-5.33301 9.33301 -9.83301 18.166 -13.5 26.499s-6.5 17.333 -8.5 27s-3.5 20.167 -4.5 31.5s-1.5 25 -1.5 41v233c0 33.333 5.33301 63.833 16 91.5s25.667 51.5 45 71.5s42.333 35.5 69 46.5s56 16.5 88 16.5z" />
    <glyph glyph-name="one" unicode="1" 
d="M318 667v-667h-93v581h-99v86h192z" />
    <glyph glyph-name="two" unicode="2" 
d="M457 0h-417.997v78l263 267c21.333 21.333 36.666 41.666 45.999 60.999s14 39.666 14 60.999c0 18 -3 34.667 -9 50s-14 28.833 -24 40.5s-22 20.834 -36 27.501s-29 10 -45 10c-35.333 0 -64 -13 -86 -39s-33 -59.333 -33 -100v-9
c0 -2.66699 0.333008 -5.33398 1 -8.00098h-94v7c0 34.667 5.16699 66.334 15.5 95.001s24.666 53.334 42.999 74.001s40.333 36.667 66 48s53.834 17 84.501 17c29.333 0 56.666 -5.66699 81.999 -17s47.666 -26.833 66.999 -46.5s34.5 -42.5 45.5 -68.5s16.5 -54 16.5 -84
c0 -34.667 -8.33301 -68 -25 -100c-7.33301 -14 -16 -27.5 -26 -40.5s-24 -28.833 -42 -47.5l-185 -191h279v-85z" />
    <glyph glyph-name="three" unicode="3" 
d="M236 -13c-29.333 0 -57 5.33887 -83 16.0059s-48.667 25.5 -68 44.5s-34.5 41.167 -45.5 66.5s-16.5 52.666 -16.5 81.999h93c1.33301 -38 13.333 -68.167 36 -90.5s52.334 -33.5 89.001 -33.5c16.667 0 32.167 3.16699 46.5 9.5s27 15.166 38 26.499
s19.667 24.5 26 39.5s9.5 31.167 9.5 48.5s-3.16699 33.166 -9.5 47.499s-15.166 26.833 -26.499 37.5s-24.5 19 -39.5 25s-31.5 9 -49.5 9h-34v94h32c30 0 53.833 8.33301 71.5 25s26.5 39.667 26.5 69c0 12.667 -2.33301 24.667 -7 36s-11 21.166 -19 29.499
s-17.5 14.833 -28.5 19.5s-22.833 7 -35.5 7c-25.333 0 -45.833 -8.16699 -61.5 -24.5s-25.167 -39.833 -28.5 -70.5h-93c1.33301 26.667 7 51 17 73s23.167 41 39.5 57s35.5 28.333 57.5 37s46 13 72 13s50 -4.83301 72 -14.5s41 -22.834 57 -39.501s28.5 -36.5 37.5 -59.5
s13.5 -48.167 13.5 -75.5c0 -13.333 -1 -25.333 -3 -36s-5.16699 -20.667 -9.5 -30s-10.5 -18.833 -18.5 -28.5s-18 -20.167 -30 -31.5c29.333 -18.667 51.666 -42.334 66.999 -71.001s23 -60.667 23 -96c0 -29.333 -5.66699 -56.833 -17 -82.5s-26.833 -48 -46.5 -67
s-42.834 -34 -69.501 -45s-55 -16.5 -85 -16.5z" />
    <glyph glyph-name="four" unicode="4" 
d="M315 190v320l-197 -320h197zM409 667v-477h70v-85h-70v-105h-94v105h-304v90l304 472h94z" />
    <glyph glyph-name="five" unicode="5" 
d="M106 667l304.001 -0.00292969v-86h-227l-25 -147c14 9.33301 28.167 16 42.5 20s31.166 6 50.499 6c32 0 61.5 -6 88.5 -18s50.5 -28.5 70.5 -49.5s35.667 -45.667 47 -74s17 -59.166 17 -92.499c0 -34 -5.83301 -65.5 -17.5 -94.5s-27.667 -54.333 -48 -76
s-44.5 -38.5 -72.5 -50.5s-58 -18 -90 -18c-30.667 0 -59.167 5.16699 -85.5 15.5s-49.333 24.833 -69 43.5s-35.667 41.167 -48 67.5s-20.166 55.5 -23.499 87.5h93c7.33301 -40 23 -71.5 47 -94.5s53 -34.5 87 -34.5c18 0 35.167 3.83301 51.5 11.5
s30.666 18.334 42.999 32.001s22 29.334 29 47.001s10.5 36.5 10.5 56.5c0 22.667 -3.5 43.5 -10.5 62.5s-16.5 35.5 -28.5 49.5s-26.5 24.833 -43.5 32.5s-35.5 11.5 -55.5 11.5c-23.333 0 -43.833 -5.5 -61.5 -16.5s-34.5 -28.5 -50.5 -52.5l-81 18z" />
    <glyph glyph-name="six" unicode="6" 
d="M253 367c-19.333 0 -37.5 -3.83301 -54.5 -11.5s-31.833 -18.167 -44.5 -31.5s-22.667 -29 -30 -47s-11 -37.333 -11 -58c0 -20 3.66699 -39 11 -57s17.166 -33.667 29.499 -47s27 -23.833 44 -31.5s34.833 -11.5 53.5 -11.5s36.334 3.83301 53.001 11.5
s31.167 18 43.5 31s22 28.333 29 46s10.5 36.5 10.5 56.5c0 20.667 -3.5 40 -10.5 58s-16.5 33.833 -28.5 47.5s-26.167 24.5 -42.5 32.5s-33.833 12 -52.5 12zM257 667l111 -0.00195312l-141 -219l21.5 3c5 0.666992 10.833 1 17.5 1c30 0 58.167 -5.83301 84.5 -17.5
s49 -27.5 68 -47.5s34 -43.667 45 -71s16.5 -57 16.5 -89c0 -34 -5.83301 -65.667 -17.5 -95s-27.667 -54.666 -48 -75.999s-44.5 -38.166 -72.5 -50.499s-58.333 -18.5 -91 -18.5c-32 0 -62 6.16699 -90 18.5s-52.5 29 -73.5 50s-37.5 45.833 -49.5 74.5s-18 59 -18 91
c0 50 16.667 101 50 153z" />
    <glyph glyph-name="seven" unicode="7" 
d="M64 667h387v-86l-245 -581h-104l252 581h-290v86z" />
    <glyph glyph-name="eight" unicode="8" 
d="M249 72c16 0 31.165 3.16699 45.498 9.5s26.833 15 37.5 26s19.167 24 25.5 39s9.5 30.833 9.5 47.5s-3.16699 32.334 -9.5 47.001s-14.666 27.5 -24.999 38.5s-22.666 19.667 -36.999 26s-29.5 9.5 -45.5 9.5s-31.167 -3.33301 -45.5 -10s-26.833 -15.5 -37.5 -26.5
s-19 -24 -25 -39s-9 -31.167 -9 -48.5c0 -16 3 -31.333 9 -46s14.333 -27.334 25 -38.001s23 -19.167 37 -25.5s29 -9.5 45 -9.5zM249.998 411c25.333 0 46.167 8.66699 62.5 26s24.5 39.666 24.5 66.999c0 25.333 -8.33301 46.833 -25 64.5s-37 26.5 -61 26.5
c-12 0 -23.333 -2.33301 -34 -7s-20 -11.167 -28 -19.5s-14.167 -18.166 -18.5 -29.499s-6.5 -23.333 -6.5 -36c0 -26 8.33301 -47.833 25 -65.5s37 -26.5 61 -26.5zM430.999 497c0 -28 -4.66895 -51.9941 -14.002 -71.9941s-24.333 -39 -45 -57
c28.667 -19.333 50.667 -43.333 66 -72s23 -61 23 -97c0 -29.333 -5.5 -56.833 -16.5 -82.5s-26.167 -48.167 -45.5 -67.5s-41.666 -34.5 -66.999 -45.5s-52.666 -16.5 -81.999 -16.5s-56.833 5.33301 -82.5 16s-48 25.5 -67 44.5s-34 41.167 -45 66.5
s-16.5 52.666 -16.5 81.999c0 36.667 7 68.667 21 96s36 52.666 66 75.999c-19.333 19.333 -33.333 39.166 -42 59.499s-13 43.5 -13 69.5c0 25.333 4.66699 49.166 14 71.499s22.333 41.666 39 57.999s36 29.333 58 39s45.333 14.5 70 14.5s47.834 -4.83301 69.501 -14.5
s40.667 -22.834 57 -39.501s29.166 -36 38.499 -58s14 -45.667 14 -71z" />
    <glyph glyph-name="nine" unicode="9" 
d="M248 301c18.667 0 36.501 3.66699 53.501 11s31.833 17.333 44.5 30s22.667 27.834 30 45.501s11 36.5 11 56.5v5c0 20 -3.66699 38.833 -11 56.5s-17.166 33.167 -29.499 46.5s-26.833 23.833 -43.5 31.5s-34.667 11.5 -54 11.5
c-18.667 0 -36.334 -3.83301 -53.001 -11.5s-31.167 -18 -43.5 -31s-22 -28.333 -29 -46s-10.5 -36.5 -10.5 -56.5c0 -20.667 3.5 -40 10.5 -58s16.667 -33.833 29 -47.5s26.666 -24.334 42.999 -32.001s33.833 -11.5 52.5 -11.5zM243.001 0l-111.004 0.00390625l142 219
c-9.33301 -1.33301 -16.666 -2.33301 -21.999 -3s-11 -1 -17 -1c-30 0 -58.167 5.83301 -84.5 17.5s-49.166 27.667 -68.499 48s-34.5 44.166 -45.5 71.499s-16.5 56.666 -16.5 87.999c0 34 5.83301 65.667 17.5 95s27.834 54.666 48.501 75.999
s44.834 38.166 72.501 50.499s57.834 18.5 90.501 18.5c32 0 62 -6.16699 90 -18.5s52.5 -29 73.5 -50s37.5 -45.667 49.5 -74s18 -58.5 18 -90.5c0 -24 -4.33301 -49.333 -13 -76s-21.334 -52.667 -38.001 -78z" />
    <glyph glyph-name="colon" unicode=":" horiz-adv-x="213" 
d="M153 390h-93v110h93v-110zM153 0h-93v110h93v-110z" />
    <glyph glyph-name="semicolon" unicode=";" horiz-adv-x="213" 
d="M153 390h-93v110h93v-110zM153 110v-100c0 -36 -7.5 -64.167 -22.5 -84.5s-38.5 -33.833 -70.5 -40.5v56c12 5.33301 20.5 11.833 25.5 19.5s7.5 18.167 7.5 31.5v8h-33v110h93z" />
    <glyph glyph-name="semicolon" unicode="&#x37e;" horiz-adv-x="213" 
d="M153 390h-93v110h93v-110zM153 110v-100c0 -36 -7.5 -64.167 -22.5 -84.5s-38.5 -33.833 -70.5 -40.5v56c12 5.33301 20.5 11.833 25.5 19.5s7.5 18.167 7.5 31.5v8h-33v110h93z" />
    <glyph glyph-name="less" unicode="&#x3c;" 
d="M467 578v-89l-338 -158l337 -158l1 -89l-434 209v77z" />
    <glyph glyph-name="equal" unicode="=" 
d="M33 301h434v-79h-434v79zM33 460h434v-79h-434v79z" />
    <glyph glyph-name="greater" unicode="&#x3e;" 
d="M33 84v90l338 157l-337 158l-1 89l434 -208v-77z" />
    <glyph glyph-name="question" unicode="?" horiz-adv-x="450" 
d="M335 320c-12.667 -11.333 -23.499 -22.1709 -32.499 -32.5039s-16.5 -21.166 -22.5 -32.499s-10.667 -23.833 -14 -37.5s-6.33301 -29.167 -9 -46.5h-93c1.33301 40.667 10 77.667 26 111s41.333 66 76 98c22 20.667 36.833 37.334 44.5 50.001s11.5 27.334 11.5 44.001
c0 15.333 -2.83301 29.833 -8.5 43.5s-13.167 25.5 -22.5 35.5s-20.5 17.833 -33.5 23.5s-27.167 8.5 -42.5 8.5c-30.667 0 -55 -9.16699 -73 -27.5s-29.333 -45.166 -34 -80.499h-95c1.33301 30 7.33301 57.5 18 82.5s25 46.333 43 64s39 31.5 63 41.5s50.333 15 79 15
c27.333 0 53.166 -5.33301 77.499 -16s45.5 -25.167 63.5 -43.5s32.333 -39.833 43 -64.5s16 -50.667 16 -78c0 -28 -5 -54 -15 -78s-25 -44.667 -45 -62zM257.001 109.995v-110h-93v110h93z" />
    <glyph glyph-name="at" unicode="@" horiz-adv-x="733" 
d="M350 206c14.667 0 28.333 3.66699 41 11s23.834 17.5 33.501 30.5s17.167 28 22.5 45s8 35.5 8 55.5c0 27.333 -7.16699 49 -21.5 65s-33.166 24 -56.499 24c-14.667 0 -28.834 -3.5 -42.501 -10.5s-25.5 -16.667 -35.5 -29s-18 -26.5 -24 -42.5s-9 -33 -9 -51
c0 -29.333 7.66699 -53 23 -71s35.666 -27 60.999 -27zM485.999 491l64.002 0.000976562l-40 -204c-2 -10 -3.5 -19 -4.5 -27s-1.5 -14 -1.5 -18c0 -12.667 3 -22.834 9 -30.501s14 -11.5 24 -11.5c13.333 0 26.166 5.16699 38.499 15.5s23.166 23.833 32.499 40.5
s17 36 23 58s9 44.333 9 67c0 34.667 -6.33301 66.667 -19 96s-30.334 54.5 -53.001 75.5s-49.667 37.333 -81 49s-65.666 17.5 -102.999 17.5c-40.667 0 -78.667 -7.5 -114 -22.5s-66 -35.5 -92 -61.5s-46.333 -56.667 -61 -92s-22 -73.333 -22 -114
c0 -30 4.16699 -58.833 12.5 -86.5s20.166 -53.167 35.499 -76.5s33.5 -43.666 54.5 -60.999s44.5 -30.666 70.5 -39.999c18.667 -7.33301 37.334 -12.5 56.001 -15.5s39.667 -4.5 63 -4.5c73.333 0 141 14 203 42l16 -58c-64 -27.333 -136.667 -41 -218 -41
c-52 0 -99.667 8.5 -143 25.5s-80.833 40.5 -112.5 70.5s-56.167 66 -73.5 108s-26 88 -26 138c0 48.667 9 94 27 136s42.667 78.667 74 110s68.166 56 110.499 74s87.833 27 136.5 27c45.333 0 87.333 -7.5 126 -22.5s72 -35.667 100 -62s50 -57.5 66 -93.5s24 -75 24 -117
c0 -30.667 -4.5 -60.334 -13.5 -89.001s-21 -53.667 -36 -75s-32.333 -38.5 -52 -51.5s-40.5 -19.5 -62.5 -19.5c-19.333 0 -35.833 5.66699 -49.5 17s-21.834 26.666 -24.501 45.999c-14.667 -21.333 -32.667 -38 -54 -50s-44.666 -18 -69.999 -18c-20 0 -38.667 4 -56 12
s-32.333 19 -45 33s-22.5 30.833 -29.5 50.5s-10.5 40.834 -10.5 63.501c0 28 4.66699 54.167 14 78.5s22 45.666 38 63.999s34.5 32.833 55.5 43.5s43.5 16 67.5 16c50.667 0 86.334 -22.333 107.001 -67z" />
    <glyph glyph-name="A" unicode="A" horiz-adv-x="594" 
d="M383 286l-85 254l-86 -254h171zM594 0h-103l-74 197h-240l-74 -197h-103l253 667h88z" />
    <glyph glyph-name="B" unicode="B" horiz-adv-x="521" 
d="M164 389h79c34 0 60.5 8 79.5 24s28.5 39 28.5 69c0 63.333 -37.667 95 -113 95h-74v-188zM164 89h106c36 0 65 9.5 87 28.5s33 44.5 33 76.5c0 34 -11.5 60.167 -34.5 78.5s-55.5 27.5 -97.5 27.5h-94v-211zM67 0l-0.00195312 667.002h173c36 0 65.5 -4 88.5 -12
s44.167 -20.667 63.5 -38c18 -17.333 31.833 -37.5 41.5 -60.5s14.5 -47.833 14.5 -74.5c0 -26 -4.66699 -48.833 -14 -68.5s-24.666 -38.834 -45.999 -57.501c34.667 -20.667 59.834 -44 75.501 -70s23.5 -57 23.5 -93c0 -28.667 -5.66699 -55.834 -17 -81.501
s-27.666 -47.167 -48.999 -64.5c-19.333 -16.667 -41.333 -28.667 -66 -36s-54.334 -11 -89.001 -11h-199z" />
    <glyph glyph-name="C" unicode="C" horiz-adv-x="707" 
d="M678 164c-32 -56.667 -74.333 -100.334 -127 -131.001s-111.334 -46 -176.001 -46c-46.667 0 -90.834 9.16699 -132.501 27.5s-78 43.333 -109 75s-55.5 68.5 -73.5 110.5s-27 87 -27 135s9 93 27 135s42.5 78.5 73.5 109.5s67.333 55.5 109 73.5s86.167 27 133.5 27
c66.667 0 126 -15.667 178 -47s95 -76.666 129 -135.999h-117c-27.333 32 -56.166 55.667 -86.499 71s-64.166 23 -101.499 23c-34 0 -66 -6.66699 -96 -20s-56.167 -31.5 -78.5 -54.5s-40 -50.167 -53 -81.5s-19.5 -64.666 -19.5 -99.999
c0 -34.667 6.5 -67.834 19.5 -99.501s30.667 -59.167 53 -82.5s48.333 -42 78 -56s61.167 -21 94.5 -21c71.333 0 132.333 29.333 183 88h119z" />
    <glyph glyph-name="D" unicode="D" horiz-adv-x="657" 
d="M164 89h79.001c46 0 85.5 4.5 118.5 13.5s61.167 23.167 84.5 42.5c25.333 21.333 45.166 48 59.499 80s21.5 67 21.5 105c0 35.333 -6 68.333 -18 99s-29.667 57.667 -53 81c-23.333 24 -48.333 41.167 -75 51.5s-59 15.5 -97 15.5h-120v-488zM67.001 0v667h236
c47.333 0 89 -7.33301 125 -22s69 -37 99 -67c30.667 -32 54.5 -69.5 71.5 -112.5s25.5 -88.167 25.5 -135.5c0 -44 -7.66699 -86.667 -23 -128s-35.666 -76.333 -60.999 -105c-30.667 -33.333 -67.334 -57.833 -110.001 -73.5s-94.667 -23.5 -156 -23.5h-207z" />
    <glyph glyph-name="E" unicode="E" horiz-adv-x="469" 
d="M427 0h-360v667h360v-90h-263v-196h263v-89h-263v-203h263v-89z" />
    <glyph glyph-name="F" unicode="F" horiz-adv-x="430" 
d="M164 0h-97v667h336v-90h-239v-200h239v-89h-239v-288z" />
    <glyph glyph-name="G" unicode="G" horiz-adv-x="750" 
d="M718 332c-0.666992 -49.333 -10 -94.998 -28 -136.998s-42.333 -78.5 -73 -109.5s-66.834 -55.167 -108.501 -72.5s-86.5 -26 -134.5 -26c-47.333 0 -91.666 9 -132.999 27s-77.5 42.5 -108.5 73.5s-55.333 67.5 -73 109.5s-26.5 87 -26.5 135
c0 48.667 8.83301 94.167 26.5 136.5s41.834 79.166 72.501 110.499s66.667 56 108 74s85.666 27 132.999 27c31.333 0 61.666 -4.16699 90.999 -12.5s57 -20.333 83 -36s49.667 -34.5 71 -56.5s39.333 -47 54 -75h-113c-30 32.667 -59 56 -87 70s-59.667 21 -95 21
c-34 0 -66 -6.83301 -96 -20.5s-56 -32.167 -78 -55.5s-39.5 -50.833 -52.5 -82.5s-19.5 -65.167 -19.5 -100.5c0 -34.667 6.5 -67.5 19.5 -98.5s30.833 -58.167 53.5 -81.5s48.834 -41.833 78.501 -55.5s61.5 -20.5 95.5 -20.5c28 0 55.667 5.16699 83 15.5
s52.333 25.166 75 44.499c9.33301 8 17.333 15.5 24 22.5s12.667 14.5 18 22.5s10.333 16.833 15 26.5s9.66699 21.5 15 35.5h-311v89h421z" />
    <glyph glyph-name="H" unicode="H" horiz-adv-x="603" 
d="M536 0h-97v290h-275v-290h-97v667h97v-288h275v288h97v-667z" />
    <glyph glyph-name="I" unicode="I" horiz-adv-x="231" 
d="M164 0h-97v667h97v-667z" />
    <glyph glyph-name="J" unicode="J" horiz-adv-x="428" 
d="M368 667l-0.000976562 -496.002c0 -26.667 -4.66699 -51.167 -14 -73.5s-22.166 -41.666 -38.499 -57.999s-35.666 -29.166 -57.999 -38.499s-46.833 -14 -73.5 -14c-22.667 0 -44.334 3.5 -65.001 10.5s-39.167 17 -55.5 30s-30 28.5 -41 46.5s-18.5 37.667 -22.5 59
h100c15.333 -38 42 -57 80 -57c26.667 0 48.5 9.66699 65.5 29s25.5 44.333 25.5 75v487h97z" />
    <glyph glyph-name="K" unicode="K" horiz-adv-x="539" 
d="M539 0h-120l-255 336v-336h-97v667h97v-331l255 331h120l-261 -331z" />
    <glyph glyph-name="L" unicode="L" horiz-adv-x="412" 
d="M395 0h-328v667h97v-578h231v-89z" />
    <glyph glyph-name="M" unicode="M" horiz-adv-x="841" 
d="M774 0h-97v563l-227 -563h-59l-227 563v-563h-97v667h153l200 -511l201 511h153v-667z" />
    <glyph glyph-name="N" unicode="N" horiz-adv-x="663" 
d="M597 0h-101l-332 515v-515h-97v667h106l326 -508v508h98v-667z" />
    <glyph glyph-name="O" unicode="O" horiz-adv-x="760" 
d="M380 76c35.333 0 68.1689 6.66602 98.502 19.999s56.666 31.5 78.999 54.5s39.833 50.167 52.5 81.5s19 65.333 19 102c0 36 -6.33301 69.667 -19 101s-30.334 58.5 -53.001 81.5s-49 41.167 -79 54.5s-62.667 20 -98 20c-34.667 0 -67.167 -6.66699 -97.5 -20
s-56.833 -31.666 -79.5 -54.999s-40.334 -50.5 -53.001 -81.5s-19 -64.5 -19 -100.5c0 -36.667 6.33301 -70.667 19 -102s30.334 -58.5 53.001 -81.5s49.167 -41.167 79.5 -54.5s62.833 -20 97.5 -20zM380.003 679.999c48 0 93.1689 -8.99902 135.502 -26.999
s79.166 -42.667 110.499 -74s56 -68 74 -110s27 -87.333 27 -136c0 -48 -9 -93 -27 -135s-42.833 -78.667 -74.5 -110s-68.5 -56 -110.5 -74s-87 -27 -135 -27s-93 9 -135 27s-78.833 42.667 -110.5 74s-56.5 68 -74.5 110s-27 87 -27 135s9 93.167 27 135.5
s42.667 79.166 74 110.499s68.166 56 110.499 74s87.5 27 135.5 27z" />
    <glyph glyph-name="P" unicode="P" horiz-adv-x="517" 
d="M164 352h100c42 0 74.667 10.333 98 31s35 49 35 85c0 72.667 -44.667 109 -134 109h-99v-225zM164 263l-0.00195312 -263.002h-97v667h232c28.667 0 55 -5 79 -15s44.667 -23.667 62 -41s30.833 -38.166 40.5 -62.499s14.5 -51.166 14.5 -80.499
c0 -28 -4.33301 -53.333 -13 -76s-21.667 -43.667 -39 -63c-11.333 -12 -23.166 -22.333 -35.499 -31s-25.666 -15.5 -39.999 -20.5s-30.333 -8.66699 -48 -11s-37.5 -3.5 -59.5 -3.5h-96z" />
    <glyph glyph-name="Q" unicode="Q" horiz-adv-x="753" 
d="M444 238c9.33301 -5.33301 19.334 -11.4961 30.001 -18.4961l31.5 -21c10.333 -7 20.166 -14 29.499 -21l24 -18.5c22 28 38.167 56 48.5 84s15.5 58 15.5 90c0 35.333 -6.5 68.666 -19.5 99.999s-30.5 58.666 -52.5 81.999s-47.833 41.833 -77.5 55.5
s-61.5 20.5 -95.5 20.5s-66.167 -6.83301 -96.5 -20.5s-56.666 -32.334 -78.999 -56.001s-40 -51.5 -53 -83.5s-19.5 -66 -19.5 -102c0 -13.333 0.666992 -24 2 -32s4 -18.667 8 -32c17.333 7.33301 36.166 12.666 56.499 15.999s43.5 5 69.5 5
c29.333 0 60.333 -4.5 93 -13.5s61 -20.5 85 -34.5zM380.001 76.0039c23.333 0 41.8311 2 55.498 6s28.834 12 45.501 24c-42.667 32 -81.5 55 -116.5 69s-70.5 21 -106.5 21c-10 0 -18.333 -0.166992 -25 -0.5s-12.667 -1 -18 -2s-10.666 -2.66699 -15.999 -5l-19 -8.5
c49.333 -69.333 116 -104 200 -104zM734.999 -12.9961c-16.667 0 -32.1719 1.00098 -46.5049 3.00098s-28.166 5 -41.499 9s-26.5 9.16699 -39.5 15.5s-26.5 14.166 -40.5 23.499c-32 -17.333 -63.5 -30.166 -94.5 -38.499s-63.5 -12.5 -97.5 -12.5
c-47.333 0 -91.666 9.16699 -132.999 27.5s-77.5 43.166 -108.5 74.499s-55.5 68.166 -73.5 110.499s-27 87.833 -27 136.5c0 48 8.83301 93 26.5 135s41.834 78.5 72.501 109.5s67 55.333 109 73s87 26.5 135 26.5s93 -9 135 -27s78.5 -42.667 109.5 -74
s55.333 -68.166 73 -110.499s26.5 -87.5 26.5 -135.5c0 -42 -6.33301 -81 -19 -117s-33.667 -74.667 -63 -116c16.667 -9.33301 30.834 -15.5 42.501 -18.5s26.834 -4.5 45.501 -4.5h9v-90z" />
    <glyph glyph-name="R" unicode="R" horiz-adv-x="549" 
d="M164 323h67c60.667 0 106.5 11 137.5 33s46.5 54.333 46.5 97c0 38 -13.5 68.167 -40.5 90.5s-62.833 33.5 -107.5 33.5h-103v-254zM508 0l-121.998 0.00292969l-222 310v-310h-97v667h206c41.333 0 76.166 -4.5 104.499 -13.5s52.833 -23.167 73.5 -42.5
c19.333 -18.667 34.333 -41.667 45 -69s16 -57 16 -89c0 -36.667 -7.33301 -69.834 -22 -99.501s-35.334 -52.834 -62.001 -69.501c-8 -5.33301 -15.5 -9.83301 -22.5 -13.5s-14.5 -6.83398 -22.5 -9.50098s-16.833 -5 -26.5 -7s-21.5 -4 -35.5 -6z" />
    <glyph glyph-name="S" unicode="S" horiz-adv-x="460" 
d="M315 494c-2 29.333 -11.168 52.8311 -27.501 70.498s-37.166 26.5 -62.499 26.5c-12 0 -23.5 -2.5 -34.5 -7.5s-20.5 -11.667 -28.5 -20s-14.5 -18.166 -19.5 -29.499s-7.5 -23 -7.5 -35c0 -12.667 1.66699 -23.834 5 -33.501s9.16602 -18.334 17.499 -26.001
s19.666 -14.5 33.999 -20.5s32.166 -12 53.499 -18s39.333 -11.667 54 -17s27.5 -11.333 38.5 -18s20.5 -13.834 28.5 -21.501s16 -17.167 24 -28.5c23.333 -33.333 35 -72 35 -116c0 -30 -5.16699 -58 -15.5 -84s-24.833 -48.5 -43.5 -67.5s-40.5 -34 -65.5 -45
s-52.167 -16.5 -81.5 -16.5c-30 0 -57.667 5.16699 -83 15.5s-47.166 24.833 -65.499 43.5s-32.666 40.834 -42.999 66.501s-15.833 53.834 -16.5 84.501h96c8 -80.667 45.667 -121 113 -121c15.333 0 29.5 2.83301 42.5 8.5s24.333 13.5 34 23.5s17.334 21.667 23.001 35
s8.5 28 8.5 44c0 47.333 -27.667 80.333 -83 99l-24 8l-28 9c-19.333 6 -34.833 11.167 -46.5 15.5s-21.167 8.5 -28.5 12.5s-13.5 8.33301 -18.5 13s-10.5 10.334 -16.5 17.001c-30 33.333 -45 74.333 -45 123c0 28 4.83301 54 14.5 78s23 44.833 40 62.5
s37.167 31.334 60.5 41.001s49 14.5 77 14.5c26 0 50 -4.5 72 -13.5s41 -21.667 57 -38s28.833 -36 38.5 -59s15.167 -48.167 16.5 -75.5h-99z" />
    <glyph glyph-name="T" unicode="T" horiz-adv-x="375" 
d="M237 0h-98v577h-128v90h353v-90h-127v-577z" />
    <glyph glyph-name="U" unicode="U" horiz-adv-x="567" 
d="M507 667l0.000976562 -462.998c0 -32 -4.83301 -59.667 -14.5 -83s-25.167 -45.666 -46.5 -66.999c-46 -44.667 -100.667 -67 -164 -67c-31.333 0 -60.5 5.66699 -87.5 17s-50.5 26.666 -70.5 45.999s-35.667 42.166 -47 68.499s-17 54.833 -17 85.5v463h97v-450
c0 -44 11.333 -78.5 34 -103.5s53.667 -37.5 93 -37.5c38 0 69 12.667 93 38c13.333 13.333 22.166 27.166 26.499 41.499s6.5 34.833 6.5 61.5v450h97z" />
    <glyph glyph-name="V" unicode="V" horiz-adv-x="586" 
d="M323 0h-59l-269 667h105l194 -500l193 500h103z" />
    <glyph glyph-name="W" unicode="W" horiz-adv-x="814" 
d="M614 0h-85l-122 466l-122 -466h-86l-186 667h101l128 -502l130 502h71l128 -499l130 499h99z" />
    <glyph glyph-name="X" unicode="X" horiz-adv-x="564" 
d="M447 0l-166 254l-167 -254h-114l221 334l-221 333h116l165 -253l167 253h116l-223 -333l221 -334h-115z" />
    <glyph glyph-name="Y" unicode="Y" horiz-adv-x="510" 
d="M304 0h-97v240l-207 427h109l147 -313l146 313h108l-206 -427v-240z" />
    <glyph glyph-name="Z" unicode="Z" horiz-adv-x="457" 
d="M433 0h-410v89l290 488h-274v90h382v-90l-287 -488h299v-89z" />
    <glyph glyph-name="bracketleft" unicode="[" horiz-adv-x="326" 
d="M162 97c0 -40.667 6.66211 -73.833 19.9951 -99.5s36 -48.167 68 -67.5v-110c-28 10.667 -53.333 24.667 -76 42s-42 36.666 -58 57.999s-28.333 44.166 -37 68.499s-13 49.5 -13 75.5v356c0 16.667 0.833008 31.834 2.5 45.501s4.33398 26.5 8.00098 38.5
s8.33398 23.667 14.001 35s12.834 23 21.501 35c14 20 30.333 38.333 49 55l21 17c6 4.66699 12.333 8.83398 19 12.501s13.834 7.16699 21.501 10.5s16.834 7 27.501 11v-109c-32 -19.333 -54.667 -41.333 -68 -66s-20 -56 -20 -94v-314z" />
    <glyph glyph-name="backslash" unicode="\" 
d="M114 750l341 -833h-88l-341 833h88z" />
    <glyph glyph-name="bracketright" unicode="]" horiz-adv-x="326" 
d="M163 403c0 41.333 -6.49902 74.667 -19.499 100s-35.5 47.666 -67.5 66.999v110c27.333 -10.667 52.333 -24.667 75 -42s42 -36.666 58 -57.999s28.5 -44.166 37.5 -68.499s13.5 -49.5 13.5 -75.5v-356c0 -32.667 -3.33301 -60.667 -10 -84s-18.667 -46.666 -36 -69.999
c-14.667 -20.667 -31.334 -39 -50.001 -55c-7.33301 -6.66699 -14.166 -12.334 -20.499 -17.001s-12.666 -8.83398 -18.999 -12.501s-13.333 -7.16699 -21 -10.5s-16.834 -7 -27.501 -11v109c31.333 19.333 53.666 41.333 66.999 66s20 56 20 94v314z" />
    <glyph glyph-name="asciicircum" unicode="^" 
d="M115 356h-96l172 313h118l172 -313h-96l-135 242z" />
    <glyph glyph-name="underscore" unicode="_" 
d="M0 -61h500v-80h-500v80z" />
    <glyph glyph-name="grave" unicode="`" 
d="M282 553l-174 131l43 55l175 -131z" />
    <glyph glyph-name="a" unicode="a" horiz-adv-x="621" 
d="M296 72c24 0 46.3311 4.66797 66.998 14.001s38.834 22 54.501 38s28 34.667 37 56s13.5 44 13.5 68c0 25.333 -4.5 48.833 -13.5 70.5s-21.167 40.667 -36.5 57s-33.5 29.166 -54.5 38.499s-43.5 14 -67.5 14s-46.333 -4.66699 -67 -14s-38.667 -22 -54 -38
s-27.5 -34.833 -36.5 -56.5s-13.5 -45.167 -13.5 -70.5c0 -24 4.5 -46.833 13.5 -68.5s21.333 -40.5 37 -56.5s33.834 -28.667 54.501 -38s42.667 -14 66 -14zM560.998 0.000976562h-85.999v78c-9.33301 -14.667 -17.5 -25.667 -24.5 -33s-16.833 -14.666 -29.5 -21.999
c-38 -24 -82.667 -36 -134 -36c-36 0 -69.667 6.66699 -101 20s-58.333 31.666 -81 54.999s-40.5 51 -53.5 83s-19.5 66.333 -19.5 103c0 38 6.66699 73.167 20 105.5s31.666 60.333 54.999 84s50.833 42.167 82.5 55.5s66.167 20 103.5 20c38 0 73.667 -7.83301 107 -23.5
s58.333 -36.167 75 -61.5v72h86v-500z" />
    <glyph glyph-name="b" unicode="b" horiz-adv-x="617" 
d="M322 430c-24 0 -46.333 -4.66504 -67 -13.998s-38.834 -22.166 -54.501 -38.499s-27.834 -35.5 -36.501 -57.5s-13 -45.667 -13 -71c0 -24.667 4.5 -47.834 13.5 -69.501s21.167 -40.5 36.5 -56.5s33.333 -28.5 54 -37.5s42.667 -13.5 66 -13.5s45.333 4.66699 66 14
s38.667 22.166 54 38.499s27.5 35.333 36.5 57s13.5 44.5 13.5 68.5c0 25.333 -4.5 48.833 -13.5 70.5s-21.167 40.667 -36.5 57s-33.166 29.166 -53.499 38.499s-42.166 14 -65.499 14zM147 0.00195312l-86.998 0.000976562v667h94v-237c20.667 28 45.667 49.167 75 63.5
s62 21.5 98 21.5c35.333 0 68.666 -7 99.999 -21s58.666 -33 81.999 -57s41.833 -52.167 55.5 -84.5s20.5 -66.833 20.5 -103.5s-6.66699 -71 -20 -103s-31.5 -59.667 -54.5 -83s-50.333 -41.833 -82 -55.5s-65.5 -20.5 -101.5 -20.5c-40.667 0 -75.5 6.66699 -104.5 20
s-54.167 34.666 -75.5 63.999v-71z" />
    <glyph glyph-name="c" unicode="c" horiz-adv-x="558" 
d="M533 165c-18.667 -55.333 -50.0029 -98.832 -94.0029 -130.499s-94.667 -47.5 -152 -47.5c-36 0 -69.5 6.66699 -100.5 20s-58 31.833 -81 55.5s-41 51.667 -54 84s-19.5 67.166 -19.5 104.499c0 36.667 6.66699 71 20 103s31.5 59.667 54.5 83s50.167 41.833 81.5 55.5
s65 20.5 101 20.5c28.667 0 56.334 -4.5 83.001 -13.5s50.834 -21.5 72.501 -37.5s40.334 -35 56.001 -57s26.5 -46 32.5 -72h-104c-18.667 34 -38.667 58.333 -60 73s-48 22 -80 22c-23.333 0 -45 -4.5 -65 -13.5s-37.333 -21.333 -52 -37s-26.167 -34.334 -34.5 -56.001
s-12.5 -45.167 -12.5 -70.5c0 -24.667 4.33301 -47.834 13 -69.501s20.167 -40.667 34.5 -57s31.333 -29.166 51 -38.499s40.5 -14 62.5 -14c30 0 58 8.33301 84 25s45.667 39.334 59 68.001h104z" />
    <glyph glyph-name="d" unicode="d" horiz-adv-x="616" 
d="M295 72c24.667 0 47.5 4.66504 68.5 13.998s39.333 22.333 55 39s28 36.334 37 59.001s13.5 47 13.5 73c0 24 -4.5 46.333 -13.5 67s-21.333 38.834 -37 54.501s-34.167 27.834 -55.5 36.501s-44.333 13 -69 13c-24 0 -46.333 -4.5 -67 -13.5s-38.5 -21.333 -53.5 -37
s-26.833 -34.334 -35.5 -56.001s-13 -45.167 -13 -70.5c0 -24.667 4.33301 -48 13 -70s20.667 -41 36 -57s33.333 -28.667 54 -38s43 -14 67 -14zM556 -0.00195312l-86.999 -0.00195312v71c-23.333 -29.333 -49.5 -50.666 -78.5 -63.999s-62.5 -20 -100.5 -20
c-36.667 0 -70.834 6.66699 -102.501 20s-59 32 -82 56s-41 52.167 -54 84.5s-19.5 67.5 -19.5 105.5c0 36 6.5 69.833 19.5 101.5s30.667 59.334 53 83.001s48.666 42.167 78.999 55.5s62.833 20 97.5 20c18 0 35.833 -2 53.5 -6s34.5 -9.5 50.5 -16.5
s30.833 -15.333 44.5 -25s24.834 -20.167 33.501 -31.5v233h93v-667z" />
    <glyph glyph-name="e" unicode="e" horiz-adv-x="574" 
d="M165 377c-12 -13.333 -20.6689 -26.5 -26.002 -39.5s-9.66602 -31.833 -12.999 -56.5h323c-0.666992 20.667 -5.66699 40.167 -15 58.5s-21.166 34.166 -35.499 47.499s-31 24 -50 32s-39.167 12 -60.5 12c-23.333 0 -45.833 -4.66699 -67.5 -14
s-40.167 -22.666 -55.5 -39.999zM525.998 157c-9.33301 -26 -22.001 -49.499 -38.001 -70.499s-34.333 -38.833 -55 -53.5s-43.334 -26 -68.001 -34s-50.667 -12 -78 -12c-34.667 0 -67.5 7 -98.5 21s-58.167 33 -81.5 57s-41.666 52 -54.999 84s-20 66 -20 102
c0 36.667 6.66699 71.167 20 103.5s31.666 60.5 54.999 84.5s50.5 43 81.5 57s64.5 21 100.5 21c34.667 0 67.334 -6.83301 98.001 -20.5s57.5 -32.334 80.5 -56.001s41.167 -51.167 54.5 -82.5s20 -65 20 -101c0 -10.667 -1 -26.667 -3 -48h-413
c10 -42 29.833 -75.333 59.5 -100s64.834 -37 105.501 -37c30 0 57 7.16699 81 21.5s44 35.5 60 63.5h94z" />
    <glyph glyph-name="f" unicode="f" horiz-adv-x="283" 
d="M167 0l-93.998 -0.00195312v415h-44v85h44v23c0 44 16.667 80 50 108c8 6.66699 15.833 12.334 23.5 17.001s16.167 8.33398 25.5 11.001s19.666 4.66699 30.999 6s24.666 2 39.999 2h12v-82h-10c-26 0 -45.5 -5.5 -58.5 -16.5s-19.5 -26.167 -19.5 -45.5v-23h88v-85h-88
v-415z" />
    <glyph glyph-name="g" unicode="g" horiz-adv-x="627" 
d="M298 72c24 0 46.333 4.50293 67 13.5029s38.834 21.333 54.501 37s28.167 34.167 37.5 55.5s14.666 44.666 15.999 69.999c0 1.33301 0.166992 2.83301 0.5 4.5s0.5 3.16699 0.5 4.5c0 24 -4.5 46.333 -13.5 67s-21.5 38.667 -37.5 54s-34.667 27.5 -56 36.5
s-44 13.5 -68 13.5s-46.5 -4.66699 -67.5 -14s-39.5 -22 -55.5 -38s-28.5 -34.833 -37.5 -56.5s-13.5 -44.834 -13.5 -69.501s4.5 -47.834 13.5 -69.501s21.333 -40.5 37 -56.5s34 -28.667 55 -38s43.5 -14 67.5 -14zM567 500.003l-0.00292969 -444.001
c0 -37.333 -6.66699 -71.5 -20 -102.5s-32.166 -57.667 -56.499 -80s-53.333 -39.666 -87 -51.999s-70.834 -18.5 -111.501 -18.5c-36.667 0 -69.667 5.83301 -99 17.5s-57.333 30.167 -84 55.5c-8 7.33301 -14.667 13.833 -20 19.5s-10.166 11.667 -14.499 18
s-8.5 13.166 -12.5 20.499s-8.33301 16.333 -13 27h105c35.333 -48 83 -72 143 -72c26 0 49.833 4 71.5 12s40.334 19.5 56.001 34.5s27.667 32.833 36 53.5s12.5 43.334 12.5 68.001v11c-48 -54 -106.333 -81 -175 -81c-36 0 -70.167 7 -102.5 21s-60.5 33.167 -84.5 57.5
s-43.167 52.5 -57.5 84.5s-21.5 66 -21.5 102s7 70 21 102s33.167 59.667 57.5 83s52.833 41.833 85.5 55.5s67.667 20.5 105 20.5c74.667 0 134.334 -24.667 179.001 -74v61h87z" />
    <glyph glyph-name="h" unicode="h" horiz-adv-x="557" 
d="M501 0l-94 0.000976562v283c0 50 -9.66699 86.667 -29 110s-50 35 -92 35c-40.667 0 -73 -13 -97 -39s-36 -61.333 -36 -106v-283h-93v667h93v-218c17.333 22.667 37.333 39 60 49s50.667 15 84 15c30.667 0 58.5 -4.66699 83.5 -14s46.5 -22.833 64.5 -40.5
s31.833 -38.834 41.5 -63.501s14.5 -52 14.5 -82v-313z" />
    <glyph glyph-name="i" unicode="i" horiz-adv-x="213" 
d="M153 667v-110h-93v110h93zM153 500v-500h-93v500h93z" />
    <glyph glyph-name="j" unicode="j" horiz-adv-x="213" 
d="M153 667v-110h-93v110h93zM153 500l-0.000976562 -485.998c0 -26 -0.666992 -47.5 -2 -64.5s-3.83301 -31.5 -7.5 -43.5s-9 -22.5 -16 -31.5s-16.167 -18.5 -27.5 -28.5c-30 -26 -64.333 -40.333 -103 -43v99c13.333 0.666992 24 2.66699 32 6s14.333 9.16602 19 17.499
s7.83398 19.666 9.50098 33.999s2.5 32.5 2.5 54.5v486h93z" />
    <glyph glyph-name="k" unicode="k" horiz-adv-x="474" 
d="M333 500h111l-181 -236l209 -264h-117l-202 259v-259h-93v667h93v-408z" />
    <glyph glyph-name="l" unicode="l" horiz-adv-x="213" 
d="M153 667v-667h-93v667h93z" />
    <glyph glyph-name="m" unicode="m" horiz-adv-x="871" 
d="M815 0l-94.001 0.000976562v278c0 100 -39.667 150 -119 150c-19.333 0 -37.166 -3.5 -53.499 -10.5s-29.5 -16.833 -39.5 -29.5c-10 -13.333 -16.833 -27.666 -20.5 -42.999s-5.5 -37.666 -5.5 -66.999v-278h-93v278c0 53.333 -8.83301 91.666 -26.5 114.999
s-46.834 35 -87.501 35c-38.667 0 -69.667 -12.667 -93 -38c-6 -6.66699 -10.833 -13.334 -14.5 -20.001s-6.66699 -14.334 -9 -23.001s-4 -18.5 -5 -29.5s-1.5 -24.167 -1.5 -39.5v-278h-93v500h87v-54c18 23.333 38.5 40.333 61.5 51s50.5 16 82.5 16
c34.667 0 66.334 -7.66699 95.001 -23s49 -35.333 61 -60c18.667 29.333 41 50.5 67 63.5s58.667 19.5 98 19.5c63.333 0 113 -18.5 149 -55.5s54 -87.833 54 -152.5v-305z" />
    <glyph glyph-name="n" unicode="n" horiz-adv-x="559" 
d="M503 0l-93.9971 0.000976562v272c0 24.667 -1.66699 45.5 -5 62.5s-8.66602 31.167 -15.999 42.5c-10 16 -24.167 28.5 -42.5 37.5s-38.833 13.5 -61.5 13.5c-40.667 0 -72.334 -13.833 -95.001 -41.5s-34 -65.834 -34 -114.501v-272h-95v500h87v-53
c33.333 44 82.666 66 147.999 66c31.333 0 59.666 -5 84.999 -15s47.166 -24 65.499 -42s32.5 -39.667 42.5 -65s15 -53.333 15 -84v-307z" />
    <glyph glyph-name="o" unicode="o" horiz-adv-x="603" 
d="M301 72c24.667 0 47.667 4.66699 69 14s40 22.166 56 38.499s28.5 35.333 37.5 57s13.5 44.834 13.5 69.501s-4.66699 47.667 -14 69s-22 40 -38 56s-34.667 28.667 -56 38s-44 14 -68 14s-46.667 -4.66699 -68 -14s-40 -22 -56 -38s-28.667 -34.667 -38 -56
s-14 -44.333 -14 -69s4.66699 -47.834 14 -69.501s22 -40.667 38 -57s34.667 -29.166 56 -38.499s44 -14 68 -14zM301 513c37.333 0 72.333 -6.83301 105 -20.5s61.334 -32.167 86.001 -55.5s44 -50.833 58 -82.5s21 -65.5 21 -101.5c0 -36.667 -7 -71.167 -21 -103.5
s-33.333 -60.5 -58 -84.5s-53.334 -43 -86.001 -57s-67.667 -21 -105 -21c-36.667 0 -71.334 7 -104.001 21s-61.334 33 -86.001 57s-44 52.167 -58 84.5s-21 66.833 -21 103.5c0 36 7 69.833 21 101.5s33.333 59.167 58 82.5s53.334 41.833 86.001 55.5
s67.334 20.5 104.001 20.5z" />
    <glyph glyph-name="p" unicode="p" horiz-adv-x="615" 
d="M321 72c24 0 46.167 4.49902 66.5 13.499s38.166 21.5 53.499 37.5s27.333 34.833 36 56.5s13 44.834 13 69.501s-4.5 47.834 -13.5 69.501s-21.333 40.667 -37 57s-34 29.166 -55 38.499s-43.167 14 -66.5 14c-22.667 0 -44.167 -4.66699 -64.5 -14
s-38.166 -22 -53.499 -38s-27.333 -34.667 -36 -56s-13 -44.333 -13 -69s4.33301 -48 13 -70s20.667 -41 36 -57s33.333 -28.667 54 -38s43 -14 67 -14zM60 -167.001l0.00292969 667h87v-77c20 30 45.167 52.5 75.5 67.5s64.5 22.5 102.5 22.5
c36.667 0 70.667 -6.83301 102 -20.5s58.5 -32.5 81.5 -56.5s41.167 -52.5 54.5 -85.5s20 -68.833 20 -107.5c0 -36 -6.5 -69.667 -19.5 -101s-30.833 -58.5 -53.5 -81.5s-49.334 -41.167 -80.001 -54.5s-63.667 -20 -99 -20c-38.667 0 -73.834 7.66699 -105.501 23
s-55.834 36.333 -72.501 63v-239h-93z" />
    <glyph glyph-name="q" unicode="q" horiz-adv-x="616" 
d="M299 72c24 0 46.5 4.66504 67.5 13.998s39.167 22 54.5 38s27.5 34.833 36.5 56.5s13.5 44.834 13.5 69.501c0 25.333 -4.5 48.833 -13.5 70.5s-21.333 40.5 -37 56.5s-34 28.5 -55 37.5s-43.833 13.5 -68.5 13.5s-47.5 -4.5 -68.5 -13.5s-39.167 -21.5 -54.5 -37.5
s-27.333 -34.667 -36 -56s-13 -44.666 -13 -69.999s4.5 -48.833 13.5 -70.5s21.333 -40.5 37 -56.5s34 -28.667 55 -38s43.833 -14 68.5 -14zM556 499.998l0.000976562 -667.001h-93v236c-44.667 -54.667 -101 -82 -169 -82c-36.667 0 -71 6.83301 -103 20.5
s-59.833 32.334 -83.5 56.001s-42.167 51.5 -55.5 83.5s-20 66.667 -20 104c0 36.667 6.66699 71 20 103s31.666 59.667 54.999 83s50.666 41.833 81.999 55.5s65.333 20.5 102 20.5c17.333 0 34.833 -1.83301 52.5 -5.5s34.334 -9 50.001 -16s30 -15.5 43 -25.5
s23.833 -21 32.5 -33v67h87z" />
    <glyph glyph-name="r" unicode="r" horiz-adv-x="288" 
d="M153 0h-92.999v500h87v-45c16 19.333 34 33.5 54 42.5s45 14.167 75 15.5v-96c-42.667 -3.33301 -73.834 -16.333 -93.501 -39s-29.5 -57.667 -29.5 -105v-273z" />
    <glyph glyph-name="s" unicode="s" horiz-adv-x="399" 
d="M201 513c22 0 42.332 -3.49805 60.999 -10.498s34.667 -17 48 -30s23.833 -28.5 31.5 -46.5s11.834 -37.667 12.501 -59h-93c-6 40.667 -26.667 61 -62 61c-18 0 -32.833 -5.16699 -44.5 -15.5s-17.5 -23.166 -17.5 -38.499c0 -8 1.16699 -15 3.5 -21
s6.33301 -11.333 12 -16s13.5 -9.16699 23.5 -13.5s23 -8.83301 39 -13.5c29.333 -8.66699 52.666 -18.167 69.999 -28.5s32.333 -22.833 45 -37.5c23.333 -28.667 35 -61 35 -97c0 -22 -4.5 -42.667 -13.5 -62s-21.333 -36.333 -37 -51s-34 -26.167 -55 -34.5
s-43.5 -12.5 -67.5 -12.5c-51.333 0 -92.333 15.833 -123 47.5s-46.667 74.5 -48 128.5h94c4 -60.667 31.333 -91 82 -91c22 0 40 6 54 18s21 27.667 21 47s-6.16699 34.666 -18.5 45.999s-35.5 22.333 -69.5 33c-15.333 5.33301 -28.5 10.166 -39.5 14.499
s-20.833 8.83301 -29.5 13.5s-16.167 9.66699 -22.5 15s-12.166 11 -17.499 17c-21.333 23.333 -32 50.666 -32 81.999c0 22 4 42.5 12 61.5s19 35.5 33 49.5s30.667 24.833 50 32.5s40.333 11.5 63 11.5z" />
    <glyph glyph-name="t" unicode="t" horiz-adv-x="265" 
d="M167 415v-415h-94v415h-68v85h68v167h94v-167h82v-85h-82z" />
    <glyph glyph-name="u" unicode="u" horiz-adv-x="559" 
d="M57 500l93.001 -0.00195312v-272c0 -24.667 1.66699 -45.5 5 -62.5s8.66602 -31.167 15.999 -42.5c10.667 -16 25.167 -28.5 43.5 -37.5s38.5 -13.5 60.5 -13.5c40.667 0 72.5 13.833 95.5 41.5s34.5 65.834 34.5 114.501v272h94v-500h-87v53
c-14 -21.333 -34 -37.666 -60 -48.999s-55 -17 -87 -17c-31.333 0 -59.833 5 -85.5 15s-47.5 24 -65.5 42s-32 39.667 -42 65s-15 53.333 -15 84v307z" />
    <glyph glyph-name="v" unicode="v" horiz-adv-x="456" 
d="M458 500l-196 -500h-66l-198 500h100l131 -358l129 358h100z" />
    <glyph glyph-name="w" unicode="w" horiz-adv-x="709" 
d="M701 500l-185 -500h-52l-109 336l-109 -336h-52l-186 500h100l112 -325l104 325h62l104 -325l111 325h100z" />
    <glyph glyph-name="x" unicode="x" horiz-adv-x="472" 
d="M343 500h114l-163 -244l174 -256h-111l-123 177l-120 -177h-109l173 256l-168 244h114l110 -165z" />
    <glyph glyph-name="y" unicode="y" horiz-adv-x="495" 
d="M497 500l-276 -667h-97l73 177l-199 490h101l147 -388l150 388h101z" />
    <glyph glyph-name="z" unicode="z" horiz-adv-x="395" 
d="M43 500h320v-94l-226 -321h244v-85h-361v72l239 343h-216v85z" />
    <glyph glyph-name="braceleft" unicode="{" 
d="M283 362c0 -16 -0.998047 -30.001 -2.99805 -42.001s-5.33301 -22.667 -10 -32s-10.834 -17.5 -18.501 -24.5s-17.167 -13.833 -28.5 -20.5c22.667 -13.333 38.334 -28.833 47.001 -46.5s13 -42.5 13 -74.5v-150c0 -17.333 1.33301 -31.333 4 -42s7.16699 -19 13.5 -25
s15.333 -10.167 27 -12.5s26.5 -3.5 44.5 -3.5h8v-78l-23 -1h-21c-50.667 0 -87 11.333 -109 34s-33 60 -33 112v162c0 28 -4.33301 48.833 -13 62.5s-23.334 23.167 -44.001 28.5v74c20 5.33301 34.5 14.5 43.5 27.5s13.5 32.167 13.5 57.5v170
c0 49.333 11.167 84.833 33.5 106.5s59.5 32.5 111.5 32.5h16c5.33301 0 13.666 -0.333008 24.999 -1v-78c-20 0 -36.333 -1 -49 -3s-22.5 -6 -29.5 -12s-11.833 -14.167 -14.5 -24.5s-4 -24.166 -4 -41.499v-155z" />
    <glyph glyph-name="bar" unicode="|" 
d="M205 750h90v-1000h-90v1000z" />
    <glyph glyph-name="braceright" unicode="}" 
d="M231 125c0 16 0.998047 30.001 2.99805 42.001s5.33301 22.5 10 31.5s10.834 17.167 18.501 24.5s17.5 14.333 29.5 21c-23.333 13.333 -39.333 28.666 -48 45.999s-13 42 -13 74v151c0 17.333 -1.16699 31.333 -3.5 42s-6.83301 19 -13.5 25s-15.667 10.167 -27 12.5
s-26 3.5 -44 3.5h-9v78l24 1h20c51.333 0 88 -11.333 110 -34s33 -60 33 -112v-162c0 -28.667 4.16699 -49.667 12.5 -63s22.833 -22.666 43.5 -27.999v-74c-20 -5.33301 -34.333 -14.5 -43 -27.5s-13 -32.167 -13 -57.5v-170c0 -49.333 -11.333 -84.833 -34 -106.5
s-60 -32.5 -112 -32.5h-16c-5.33301 0 -13.666 0.333008 -24.999 1v78c20 0 36.333 1 49 3s22.5 6 29.5 12s11.833 14.167 14.5 24.5s4 24.166 4 41.499v155z" />
    <glyph glyph-name="asciitilde" unicode="~" horiz-adv-x="667" 
d="M226 644c-16.667 0 -31.1709 -5.16797 -43.5039 -15.501s-25.166 -27.833 -38.499 -52.5l-52 33c11.333 23.333 22 42.833 32 58.5s20.5 28.167 31.5 37.5s22.667 16 35 20s26.5 6 42.5 6c13.333 0 28.333 -2.33301 45 -7s38.334 -12.667 65.001 -24
c14.667 -6.66699 26.834 -11.834 36.501 -15.501s17.667 -6.5 24 -8.5s12 -3.33301 17 -4s10.167 -1 15.5 -1c18.667 0 34 4.5 46 13.5s25.333 25.167 40 48.5l53 -31c-13.333 -27.333 -25.666 -48.166 -36.999 -62.499s-25 -26.166 -41 -35.499
c-22.667 -13.333 -46.667 -20 -72 -20c-9.33301 0 -22.333 2 -39 6s-33 9.66699 -49 17l-53 23c-22 9.33301 -41.333 14 -58 14z" />
    <glyph glyph-name="nonbreakingspace" unicode="&#xa0;" horiz-adv-x="333" 
 />
    <glyph glyph-name="exclamdown" unicode="&#xa1;" horiz-adv-x="240" 
d="M167 500v-110h-94v110h94zM167 333v-500h-94v500h94z" />
    <glyph glyph-name="cent" unicode="&#xa2;" 
d="M258 214c23.333 0 42.666 3.83496 57.999 11.502s29.333 20.167 42 37.5h106c-27.333 -73.333 -82.333 -119 -165 -137v-88h-85v88c-56.667 12.667 -100.834 38 -132.501 76s-47.5 85.333 -47.5 142c0 27.333 4.16699 52.666 12.5 75.999s20.333 44.166 36 62.499
s34.667 33.833 57 46.5s47.166 21.667 74.499 27v86h85v-86c84.667 -20.667 140.334 -68.667 167.001 -144h-107c-8.66699 17.333 -22 30.666 -40 39.999s-38.667 14 -62 14c-18.667 0 -35.834 -3.16699 -51.501 -9.5s-29.167 -15.333 -40.5 -27s-20.333 -25.167 -27 -40.5
s-10 -32 -10 -50s3.33301 -34.5 10 -49.5s15.834 -28.167 27.501 -39.5s25.334 -20.166 41.001 -26.499s32.834 -9.5 51.501 -9.5z" />
    <glyph glyph-name="sterling" unicode="&#xa3;" 
d="M398 194c0 10 -0.669922 18.3301 -2.00293 24.9971s-4.66602 15.334 -9.99902 26.001h100c2 -11.333 3.33301 -20.166 4 -26.499s1 -14.166 1 -23.499c0 -60 -18.167 -107.5 -54.5 -142.5s-85.833 -52.5 -148.5 -52.5h-250v85h115c9.33301 15.333 15.333 28.333 18 39
s4 24 4 40c0 58 -23 101.667 -69 131h-97v85h31c-6.66699 15.333 -11 27.833 -13 37.5s-3 21.834 -3 36.501c0 31.333 5.66699 60.833 17 88.5s27 51.667 47 72s43.333 36.333 70 48s55.334 17.5 86.001 17.5c27.333 0 53.166 -4.33301 77.499 -13s46 -20.834 65 -36.501
s35 -34.5 48 -56.5s22.167 -46.667 27.5 -74h-101c-14 32.667 -30.5 56.667 -49.5 72s-42.5 23 -70.5 23c-17.333 0 -33.5 -3.5 -48.5 -10.5s-28.167 -16.5 -39.5 -28.5s-20.166 -26 -26.499 -42s-9.5 -33.333 -9.5 -52c0 -17.333 2.66699 -32.5 8 -45.5
s14 -25.167 26 -36.5h196v-85h-114c12.667 -19.333 21.834 -39.5 27.501 -60.5s8.5 -44.5 8.5 -70.5c0 -15.333 -0.666992 -28 -2 -38s-4.33301 -23.667 -9 -41h29c34 0 61 9.66699 81 29s30 46 30 80z" />
    <glyph glyph-name="currency" unicode="&#xa4;" horiz-adv-x="667" 
d="M492 365c0 22 -4.16699 42.667 -12.5 62s-19.666 36.166 -33.999 50.499s-31 25.666 -50 33.999s-39.5 12.5 -61.5 12.5s-42.667 -4.16699 -62 -12.5s-36.166 -19.666 -50.499 -33.999s-25.666 -31.166 -33.999 -50.499s-12.5 -40 -12.5 -62s4.16699 -42.667 12.5 -62
s19.666 -36.166 33.999 -50.499s31.166 -25.666 50.499 -33.999s40 -12.5 62 -12.5s42.5 4.16699 61.5 12.5s35.667 19.666 50 33.999s25.666 31.166 33.999 50.499s12.5 40 12.5 62zM45 127l96.9971 97.0029c-33.333 43.333 -50 90.666 -50 141.999
c0 25.333 3.83301 49 11.5 71s20.167 44.667 37.5 68l-98 98l50 50l98 -98c25.333 18 48.833 30.833 70.5 38.5s45.834 11.5 72.501 11.5c26 0 49.833 -3.83301 71.5 -11.5s44.834 -20.167 69.501 -37.5l97 97l50 -50l-97 -97c18 -25.333 30.667 -48.833 38 -70.5
s11 -45.167 11 -70.5s-3.66699 -48.833 -11 -70.5s-19.666 -44.834 -36.999 -69.501l98 -97l-49 -50l-98 97c-23.333 -17.333 -46.5 -29.833 -69.5 -37.5s-47.167 -11.5 -72.5 -11.5s-49.333 3.66699 -72 11s-46.667 19.666 -72 36.999l-97 -96z" />
    <glyph glyph-name="yen" unicode="&#xa5;" 
d="M204 195h-147v77h141l-49 107h-112v77h76l-98 211h105l131 -293l130 293h104l-97 -211h75v-77h-111l-49 -107h140v-77h-146v-195h-93v195z" />
    <glyph glyph-name="section" unicode="&#xa7;" 
d="M169 376c-16 -10 -28.668 -22.167 -38.001 -36.5s-14 -28.5 -14 -42.5c0 -13.333 4.83301 -26.5 14.5 -39.5s22.167 -23.5 37.5 -31.5l160 -83c10.667 8.66699 19.334 16.334 26.001 23.001s12 13.167 16 19.5s6.83301 12.666 8.5 18.999s2.5 13.5 2.5 21.5
c0 16 -4.33301 29.167 -13 39.5s-25.667 21.833 -51 34.5zM250.999 680c52 0 93.8359 -14.8359 125.503 -44.5029s50.5 -71.5 56.5 -125.5h-97c-10 52 -38.667 78 -86 78c-22.667 0 -41.5 -6.66699 -56.5 -20s-22.5 -30 -22.5 -50c0 -15.333 4.16699 -28.166 12.5 -38.499
s24.833 -21.833 49.5 -34.5l124 -63c42 -21.333 71.5 -43 88.5 -65s25.5 -48.667 25.5 -80c0 -28.667 -6.16699 -54 -18.5 -76s-31.833 -43 -58.5 -63c18.667 -22 31.5 -41.667 38.5 -59s10.5 -36.333 10.5 -57c0 -26.667 -4.83301 -51.167 -14.5 -73.5s-23 -41.5 -40 -57.5
s-37.333 -28.5 -61 -37.5s-49.5 -13.5 -77.5 -13.5c-28.667 0 -54.834 4.66699 -78.501 14s-44.334 22.5 -62.001 39.5s-31.667 37.5 -42 61.5s-16.166 50.667 -17.499 80h96c2.66699 -34 13.167 -60 31.5 -78s43.5 -27 75.5 -27c30 0 53.833 8.16699 71.5 24.5
s26.5 37.833 26.5 64.5c0 18.667 -5.83301 34.667 -17.5 48s-32.834 28 -63.501 44l-137 72c-38 20 -64.833 40.833 -80.5 62.5s-23.5 49.5 -23.5 83.5c0 60.667 27.667 107.334 83 140.001c-12.667 17.333 -21.667 33.333 -27 48s-8 30.334 -8 47.001
c0 22 4.5 42.5 13.5 61.5s21.167 35.5 36.5 49.5s33.666 25 54.999 33s44.333 12 69 12z" />
    <glyph glyph-name="dieresis" unicode="&#xa8;" 
d="M131 683h91v-110h-91v110zM278 683h91v-110h-91v110z" />
    <glyph glyph-name="copyright" unicode="&#xa9;" horiz-adv-x="773" 
d="M576 237c-0.666992 -2 -1.66504 -3.66992 -2.99805 -5.00293c-19.333 -34 -45 -60.333 -77 -79s-67.667 -28 -107 -28c-28.667 0 -55.5 5.5 -80.5 16.5s-46.833 26 -65.5 45s-33.5 41.333 -44.5 67s-16.5 52.834 -16.5 81.501s5.33301 55.5 16 80.5
s25.5 46.833 44.5 65.5s41.167 33.334 66.5 44.001s52.333 16 81 16c40 0 75.667 -9.33301 107 -28s57.666 -46 78.999 -82l3 -5h-77l-1 1c-30.667 36.667 -67.334 55 -110.001 55c-20 0 -38.833 -3.83301 -56.5 -11.5s-33 -18.167 -46 -31.5s-23.333 -29 -31 -47
s-11.5 -37.333 -11.5 -58c0 -20 3.83301 -39.167 11.5 -57.5s18 -34.166 31 -47.499s28.333 -24 46 -32s36.167 -12 55.5 -12c21.333 0 40.5 4.5 57.5 13.5s33.5 21.5 49.5 37.5l1 1h78zM387.002 39.9971c40 0 77.667 7.66699 113 23s66 36.333 92 63s46.667 57.667 62 93
s23 73.333 23 114s-7.66699 78.834 -23 114.501s-36 66.834 -62 93.501s-56.667 47.667 -92 63s-73 23 -113 23s-77.667 -7.83301 -113 -23.5s-66.166 -36.667 -92.499 -63s-47.166 -57.333 -62.499 -93s-23 -73.834 -23 -114.501c0 -40 7.66699 -77.833 23 -113.5
s36.166 -66.834 62.499 -93.501s57.166 -47.667 92.499 -63s73 -23 113 -23zM387.002 679.997c48 0 93 -9 135 -27s78.667 -42.833 110 -74.5s56 -68.5 74 -110.5s27 -87 27 -135s-9 -93 -27 -135s-42.667 -78.667 -74 -110s-68 -56 -110 -74s-87 -27 -135 -27
s-93 9 -135 27s-78.833 42.667 -110.5 74s-56.5 68 -74.5 110s-27 87 -27 135s9 93 27 135s42.833 78.833 74.5 110.5s68.5 56.5 110.5 74.5s87 27 135 27z" />
    <glyph glyph-name="ordfeminine" unicode="&#xaa;" horiz-adv-x="333" 
d="M159 443c24.667 0 45.667 8.66797 63 26.001s26 38.333 26 63c0 12.667 -2.33301 24.667 -7 36s-11 21.166 -19 29.499s-17.333 14.833 -28 19.5s-22 7 -34 7s-23.333 -2.33301 -34 -7s-20 -11.167 -28 -19.5s-14.333 -18 -19 -29s-7 -22.833 -7 -35.5
c0 -12 2.33301 -23.5 7 -34.5s11 -20.667 19 -29s17.167 -14.833 27.5 -19.5s21.5 -7 33.5 -7zM303 330.001v-33h-280v33h280zM303 400.001l-50.999 -0.00195312v35c-9.33301 -13.333 -22.666 -23.666 -39.999 -30.999s-36.333 -11 -57 -11c-19.333 0 -37.5 3.5 -54.5 10.5
s-31.667 16.833 -44 29.5s-22 27.334 -29 44.001s-10.5 35 -10.5 55s3.66699 38.667 11 56s17.166 32.333 29.499 45s27.166 22.667 44.499 30s36 11 56 11c19.333 0 36.5 -3.33301 51.5 -10s29.167 -16.667 42.5 -30v33h51v-267z" />
    <glyph glyph-name="guillemotleft" unicode="&#xab;" horiz-adv-x="358" 
d="M165 425v-102l-67 -67l67 -67v-101l-125 121v93zM311 425v-102l-67 -67l67 -67v-101l-123 121v93z" />
    <glyph glyph-name="logicalnot" unicode="&#xac;" 
d="M377 0v186h-344v81h434v-267h-90z" />
    <glyph glyph-name="registered" unicode="&#xae;" horiz-adv-x="513" 
d="M226 557h19c38.667 0 58 12.667 58 38c0 10.667 -4.16699 19.167 -12.5 25.5s-19.5 9.5 -33.5 9.5h-31v-73zM347 447h-52l-69 90v-90h-41v220h74c27.333 0 48.333 -6.16699 63 -18.5s22 -30.166 22 -53.499c0 -18.667 -5.33301 -33.834 -16 -45.501
s-25.667 -19.167 -45 -22.5zM432 557c0 24 -4.66699 46.667 -14 68s-21.833 39.833 -37.5 55.5s-34.167 28.167 -55.5 37.5s-44 14 -68 14s-46.667 -4.66699 -68 -14s-40 -21.833 -56 -37.5s-28.667 -34.167 -38 -55.5s-14 -44 -14 -68s4.66699 -46.667 14 -68
s22 -40 38 -56s34.667 -28.667 56 -38s44 -14 68 -14s46.667 4.66699 68 14s39.833 22 55.5 38s28.167 34.667 37.5 56s14 44 14 68zM48 557c0 28.667 5.5 55.667 16.5 81s25.833 47.333 44.5 66s40.834 33.5 66.501 44.5s52.834 16.5 81.501 16.5s55.667 -5.5 81 -16.5
s47.333 -25.833 66 -44.5s33.5 -40.667 44.5 -66s16.5 -52.333 16.5 -81s-5.5 -55.834 -16.5 -81.501s-25.833 -47.834 -44.5 -66.501s-40.667 -33.5 -66 -44.5s-52.333 -16.5 -81 -16.5s-55.834 5.5 -81.501 16.5s-47.834 25.833 -66.501 44.5s-33.5 40.834 -44.5 66.501
s-16.5 52.834 -16.5 81.501z" />
    <glyph glyph-name="macron" unicode="&#xaf;" 
d="M400 598h-300v65h300v-65z" />
    <glyph glyph-name="macron" unicode="&#x2c9;" 
d="M400 598h-300v65h300v-65z" />
    <glyph glyph-name="degree" unicode="&#xb0;" 
d="M250 611c-24.667 0 -45.667 -8.5 -63 -25.5s-26 -37.5 -26 -61.5s8.66699 -44.5 26 -61.5s38.333 -25.5 63 -25.5s45.667 8.5 63 25.5s26 37.5 26 61.5s-8.66699 44.5 -26 61.5s-38.333 25.5 -63 25.5zM250 381c-20 0 -38.833 3.66602 -56.5 10.999
s-33.167 17.5 -46.5 30.5s-23.833 28.167 -31.5 45.5s-11.5 36 -11.5 56s3.83301 38.667 11.5 56s18.167 32.5 31.5 45.5s28.833 23.167 46.5 30.5s36.5 11 56.5 11s38.833 -3.66699 56.5 -11s33.167 -17.5 46.5 -30.5s23.833 -28.167 31.5 -45.5s11.5 -36 11.5 -56
c0 -19.333 -3.83301 -37.666 -11.5 -54.999s-18.167 -32.5 -31.5 -45.5s-28.833 -23.333 -46.5 -31s-36.5 -11.5 -56.5 -11.5z" />
    <glyph glyph-name="plusminus" unicode="&#xb1;" 
d="M33 145h434v-84h-434v84zM33 432h172v166h90v-166h172v-83h-172v-166h-90v166h-172v83z" />
    <glyph glyph-name="acute" unicode="&#xb4;" 
d="M218 553l-44 55l175 131l43 -55z" />
    <glyph glyph-name="mu" unicode="&#xb5;" 
d="M40 -169l-0.00292969 648.002h90v-265c0 -18.667 0.833008 -35 2.5 -49s4.5 -26.333 8.5 -37s9.33301 -19.834 16 -27.501s15 -14.834 25 -21.501c20 -12.667 42 -19 66 -19c20.667 0 39.5 4.83301 56.5 14.5s31.167 23.5 42.5 41.5c8.66699 14 14.667 28.5 18 43.5
s5 35.5 5 61.5v258h89v-479h-89v77c-15.333 -32 -32.666 -54.833 -51.999 -68.5s-43.333 -20.5 -72 -20.5c-25.333 0 -47.166 5.5 -65.499 16.5s-35.166 28.833 -50.499 53.5v-227h-90z" />
    <glyph glyph-name="mu" unicode="&#x3bc;" 
d="M40 -169l-0.00292969 648.002h90v-265c0 -18.667 0.833008 -35 2.5 -49s4.5 -26.333 8.5 -37s9.33301 -19.834 16 -27.501s15 -14.834 25 -21.501c20 -12.667 42 -19 66 -19c20.667 0 39.5 4.83301 56.5 14.5s31.167 23.5 42.5 41.5c8.66699 14 14.667 28.5 18 43.5
s5 35.5 5 61.5v258h89v-479h-89v77c-15.333 -32 -32.666 -54.833 -51.999 -68.5s-43.333 -20.5 -72 -20.5c-25.333 0 -47.166 5.5 -65.499 16.5s-35.166 28.833 -50.499 53.5v-227h-90z" />
    <glyph glyph-name="paragraph" unicode="&#xb6;" horiz-adv-x="606" 
d="M218 -97v414.003c-3.33301 -0.666992 -6 -1 -8 -1h-6c-26.667 0 -51.167 4.16699 -73.5 12.5s-41.5 20.166 -57.5 35.499s-28.333 33.666 -37 54.999s-13 44.666 -13 69.999c0 38.667 9.83301 72.5 29.5 101.5s46.167 49.167 79.5 60.5c15.333 5.33301 33 9.33301 53 12
s40.333 4 61 4h289v-71h-64v-693h-77v693h-98v-693h-78z" />
    <glyph glyph-name="periodcentered" unicode="&#xb7;" horiz-adv-x="110" 
d="M110 275h-110v130h110v-130z" />
    <glyph glyph-name="periodcentered" unicode="&#x2219;" horiz-adv-x="110" 
d="M110 275h-110v130h110v-130z" />
    <glyph glyph-name="cedilla" unicode="&#xb8;" 
d="M285 0l-25.001 -61.001c3.33301 0.666992 6.66602 1 9.99902 1h8c21.333 0 39 -7.33301 53 -22s21 -32.667 21 -54c0 -24.667 -8.33301 -45 -25 -61s-37.667 -24 -63 -24c-23.333 0 -42.666 6.66699 -57.999 20s-24 31.333 -26 54h48c6.66699 -19.333 19 -29 37 -29
c11.333 0 20.5 3.5 27.5 10.5s10.5 15.833 10.5 26.5s-3.5 19.334 -10.5 26.001s-16.167 10 -27.5 10c-6.66699 0 -12.167 -1 -16.5 -3s-9.16602 -5.66699 -14.499 -11l-30 30l35 87h46z" />
    <glyph glyph-name="ordmasculine" unicode="&#xba;" horiz-adv-x="333" 
d="M167 443c25.333 0 46.666 8.83301 63.999 26.5s26 39.167 26 64.5c0 24.667 -8.66699 45.834 -26 63.501s-38.666 26.5 -63.999 26.5s-46.833 -8.83301 -64.5 -26.5s-26.5 -38.834 -26.5 -63.501c0 -25.333 8.83301 -46.833 26.5 -64.5s39.167 -26.5 64.5 -26.5zM305 330
v-33h-277v33h277zM167 674c20 0 38.833 -3.66602 56.5 -10.999s33 -17.333 46 -30s23.333 -27.334 31 -44.001s11.5 -34.667 11.5 -54c0 -20 -3.83301 -38.5 -11.5 -55.5s-18 -32 -31 -45s-28.333 -23.167 -46 -30.5s-36.5 -11 -56.5 -11s-39 3.66699 -57 11
s-33.5 17.5 -46.5 30.5s-23.333 28.167 -31 45.5s-11.5 35.666 -11.5 54.999s3.83301 37.333 11.5 54s18 31.334 31 44.001s28.5 22.667 46.5 30s37 11 57 11z" />
    <glyph glyph-name="guillemotright" unicode="&#xbb;" horiz-adv-x="359" 
d="M197 88v103l67 66l-67 67v101l122 -121v-93zM47 88v103l67 66l-67 67v101l123 -121l-1 -93z" />
    <glyph glyph-name="questiondown" unicode="&#xbf;" horiz-adv-x="450" 
d="M115 180c13.333 11.333 24.332 22.1709 32.999 32.5039s16 21.166 22 32.499s10.667 23.833 14 37.5s6.33301 29.167 9 46.5h93c-1.33301 -40.667 -10 -77.667 -26 -111s-41.333 -66 -76 -98c-22 -20.667 -36.833 -37.334 -44.5 -50.001s-11.5 -27.334 -11.5 -44.001
c0 -15.333 2.83301 -29.833 8.5 -43.5s13.167 -25.5 22.5 -35.5s20.666 -17.833 33.999 -23.5s27.333 -8.5 42 -8.5c30 0 54.167 9.16699 72.5 27.5s29.5 45.166 33.5 80.499h95c-1.33301 -30 -7.16602 -57.5 -17.499 -82.5s-24.5 -46.333 -42.5 -64s-39 -31.5 -63 -41.5
s-50.333 -15 -79 -15c-27.333 0 -53.166 5.33301 -77.499 16s-45.5 25.167 -63.5 43.5s-32.333 39.833 -43 64.5s-16 50.667 -16 78c0 28 5 54 15 78s25 44.667 45 62zM192.999 390.005v110h93v-110h-93z" />
    <glyph glyph-name="Agrave" unicode="&#xc0;" horiz-adv-x="594" 
d="M383 286l-85 254l-86 -254h171zM387 717l-203 110l38 70l201 -115zM594 0h-103l-74 197h-240l-74 -197h-103l253 667h88z" />
    <glyph glyph-name="Aacute" unicode="&#xc1;" horiz-adv-x="594" 
d="M383 286l-85 254l-86 -254h171zM207 717l-36 65l201 115l38 -70zM594 0h-103l-74 197h-240l-74 -197h-103l253 667h88z" />
    <glyph glyph-name="Acircumflex" unicode="&#xc2;" horiz-adv-x="594" 
d="M383 286l-85 254l-86 -254h171zM468 735h-108l-61 62l-66 -62h-107l125 121h90zM594 0h-103l-74 197h-240l-74 -197h-103l253 667h88z" />
    <glyph glyph-name="Atilde" unicode="&#xc3;" horiz-adv-x="594" 
d="M383 286l-85 254l-86 -254h171zM467 786c-34.667 -27.333 -68.333 -40.998 -101 -40.998c-13.333 0 -43.666 5.66699 -90.999 17c-11.333 2.66699 -19.5 4.33398 -24.5 5.00098s-10.167 1 -15.5 1c-10 0 -19.5 -1.33301 -28.5 -4s-21.167 -7.66699 -36.5 -15l-43 58
c20.667 13.333 38.167 22.666 52.5 27.999s28.5 8 42.5 8c6 0 12.333 -0.5 19 -1.5s16 -3.16699 28 -6.5c26 -6.66699 44.667 -11 56 -13s20.666 -3 27.999 -3c9.33301 0 17.833 1.16699 25.5 3.5s19.167 7.16602 34.5 14.499c4.66699 1.33301 9.66699 3.66602 15 6.99902z
M594.001 0.00195312h-103l-74 197h-240l-74 -197h-103l253 667h88z" />
    <glyph glyph-name="Adieresis" unicode="&#xc4;" horiz-adv-x="594" 
d="M383 286l-85 254l-86 -254h171zM174 850h93v-110h-93v110zM327 850h93v-110h-93v110zM594 0h-103l-74 197h-240l-74 -197h-103l253 667h88z" />
    <glyph glyph-name="Aring" unicode="&#xc5;" horiz-adv-x="594" 
d="M344 813c0 13.333 -4.5 24.833 -13.5 34.5s-20.167 14.5 -33.5 14.5s-24.5 -4.83301 -33.5 -14.5s-13.5 -21.167 -13.5 -34.5s4.5 -24.666 13.5 -33.999s20.167 -14 33.5 -14s24.5 4.66699 33.5 14s13.5 20.666 13.5 33.999zM383 286l-85 254l-86 -254h171zM197 813
c0 14 2.66699 27.167 8 39.5s12.5 23 21.5 32s19.5 16 31.5 21s25 7.5 39 7.5s27 -2.5 39 -7.5s22.5 -12 31.5 -21s16.167 -19.667 21.5 -32s8 -25.5 8 -39.5c0 -28 -9.66699 -51.667 -29 -71s-43 -29 -71 -29s-51.667 9.66699 -71 29s-29 43 -29 71zM594 0h-103l-74 197
h-240l-74 -197h-103l253 667h88z" />
    <glyph glyph-name="AE" unicode="&#xc6;" horiz-adv-x="802" 
d="M436 274v248l-156 -248h156zM428 667h332v-90h-227v-196h227v-89h-227v-203h227v-89h-324v185h-220l-122 -185h-114z" />
    <glyph glyph-name="Ccedilla" unicode="&#xc7;" horiz-adv-x="707" 
d="M678 164c-30.667 -54 -71.1699 -96.334 -121.503 -127.001s-106.833 -47.334 -169.5 -50.001l-22 -53c4 0.666992 7.66699 1 11 1h9c22.667 0 41.5 -7.66699 56.5 -23s22.5 -34.666 22.5 -57.999c0 -26.667 -8.83301 -48.667 -26.5 -66s-40.5 -26 -68.5 -26
c-24.667 0 -45.167 7.33301 -61.5 22s-25.833 34 -28.5 58h51c8 -20.667 21.333 -31 40 -31c12 0 21.833 3.83301 29.5 11.5s11.5 17.167 11.5 28.5s-3.83301 20.5 -11.5 27.5s-17.5 10.5 -29.5 10.5s-22.667 -4.66699 -32 -14l-33 31l32 83
c-43.333 5.33301 -83.5 18 -120.5 38s-69.167 45.5 -96.5 76.5s-48.666 66.333 -63.999 106s-23 81.5 -23 125.5c0 48 9 93 27 135s42.5 78.5 73.5 109.5s67.333 55.5 109 73.5s86.167 27 133.5 27c66.667 0 126 -15.667 178 -47s95 -76.666 129 -135.999h-117
c-27.333 32 -56.166 55.667 -86.499 71s-64.166 23 -101.499 23c-34 0 -66 -6.66699 -96 -20s-56.167 -31.5 -78.5 -54.5s-40 -50.167 -53 -81.5s-19.5 -64.666 -19.5 -99.999c0 -34.667 6.5 -67.834 19.5 -99.501s30.667 -59.167 53 -82.5s48.333 -42 78 -56
s61.167 -21 94.5 -21c71.333 0 132.333 29.333 183 88h119z" />
    <glyph glyph-name="Egrave" unicode="&#xc8;" horiz-adv-x="469" 
d="M337 717l-203 110l38 70l201 -115zM427 0h-360v667h360v-90h-263v-196h263v-89h-263v-203h263v-89z" />
    <glyph glyph-name="Eacute" unicode="&#xc9;" horiz-adv-x="469" 
d="M157 717l-37 65l201 115l39 -70zM427 0h-360v667h360v-90h-263v-196h263v-89h-263v-203h263v-89z" />
    <glyph glyph-name="Ecircumflex" unicode="&#xca;" horiz-adv-x="469" 
d="M418 735h-108l-62 62l-65 -62h-107l125 121h90zM427 0h-360v667h360v-90h-263v-196h263v-89h-263v-203h263v-89z" />
    <glyph glyph-name="Edieresis" unicode="&#xcb;" horiz-adv-x="469" 
d="M123 850h94v-110h-94v110zM277 850h93v-110h-93v110zM427 0h-360v667h360v-90h-263v-196h263v-89h-263v-203h263v-89z" />
    <glyph glyph-name="Igrave" unicode="&#xcc;" horiz-adv-x="231" 
d="M205 717l-203 110l39 70l201 -115zM164 0h-97v667h97v-667z" />
    <glyph glyph-name="Iacute" unicode="&#xcd;" horiz-adv-x="231" 
d="M25 717l-36 65l201 115l38 -70zM164 0h-97v667h97v-667z" />
    <glyph glyph-name="Icircumflex" unicode="&#xce;" horiz-adv-x="231" 
d="M254 735h-87l-50 62l-53 -62h-87l101 121h73zM164 0h-97v667h97v-667z" />
    <glyph glyph-name="Idieresis" unicode="&#xcf;" horiz-adv-x="231" 
d="M6 850h88v-110h-88v110zM137 850h88v-110h-88v110zM164 0h-97v667h97v-667z" />
    <glyph glyph-name="Ntilde" unicode="&#xd1;" horiz-adv-x="663" 
d="M502 786c-17.333 -13.333 -34.166 -23.498 -50.499 -30.498s-33.166 -10.5 -50.499 -10.5c-13.333 0 -43.666 5.66699 -90.999 17c-11.333 2.66699 -19.5 4.33398 -24.5 5.00098s-10.167 1 -15.5 1c-10 0 -19.5 -1.33301 -28.5 -4s-21.167 -7.66699 -36.5 -15l-43 58
c20.667 13.333 38 22.666 52 27.999s28.333 8 43 8c6 0 12.333 -0.5 19 -1.5s16 -3.16699 28 -6.5c26 -6.66699 44.667 -11 56 -13s20.666 -3 27.999 -3c9.33301 0 17.666 1.16699 24.999 3.5s18.666 7.16602 33.999 14.499c4.66699 1.33301 9.66699 3.66602 15 6.99902z
M597 0.00195312h-101l-332 515v-515h-97v667h106l326 -508v508h98v-667z" />
    <glyph glyph-name="Ograve" unicode="&#xd2;" horiz-adv-x="760" 
d="M380 76c35.333 0 68.1689 6.66602 98.502 19.999s56.666 31.5 78.999 54.5s39.833 50.167 52.5 81.5s19 65.333 19 102c0 36 -6.33301 69.667 -19 101s-30.334 58.5 -53.001 81.5s-49 41.167 -79 54.5s-62.667 20 -98 20c-34.667 0 -67.167 -6.66699 -97.5 -20
s-56.833 -31.666 -79.5 -54.999s-40.334 -50.5 -53.001 -81.5s-19 -64.5 -19 -100.5c0 -36.667 6.33301 -70.667 19 -102s30.334 -58.5 53.001 -81.5s49.167 -41.167 79.5 -54.5s62.833 -20 97.5 -20zM470.003 716.999l-203 110l38 70l201 -115zM380.003 679.999
c48 0 93.1689 -8.99902 135.502 -26.999s79.166 -42.667 110.499 -74s56 -68 74 -110s27 -87.333 27 -136c0 -48 -9 -93 -27 -135s-42.833 -78.667 -74.5 -110s-68.5 -56 -110.5 -74s-87 -27 -135 -27s-93 9 -135 27s-78.833 42.667 -110.5 74s-56.5 68 -74.5 110
s-27 87 -27 135s9 93.167 27 135.5s42.667 79.166 74 110.499s68.166 56 110.499 74s87.5 27 135.5 27z" />
    <glyph glyph-name="Oacute" unicode="&#xd3;" horiz-adv-x="760" 
d="M380 76c35.333 0 68.1689 6.66602 98.502 19.999s56.666 31.5 78.999 54.5s39.833 50.167 52.5 81.5s19 65.333 19 102c0 36 -6.33301 69.667 -19 101s-30.334 58.5 -53.001 81.5s-49 41.167 -79 54.5s-62.667 20 -98 20c-34.667 0 -67.167 -6.66699 -97.5 -20
s-56.833 -31.666 -79.5 -54.999s-40.334 -50.5 -53.001 -81.5s-19 -64.5 -19 -100.5c0 -36.667 6.33301 -70.667 19 -102s30.334 -58.5 53.001 -81.5s49.167 -41.167 79.5 -54.5s62.833 -20 97.5 -20zM290.003 716.999l-36 65l201 115l38 -70zM380.003 679.999
c48 0 93.1689 -8.99902 135.502 -26.999s79.166 -42.667 110.499 -74s56 -68 74 -110s27 -87.333 27 -136c0 -48 -9 -93 -27 -135s-42.833 -78.667 -74.5 -110s-68.5 -56 -110.5 -74s-87 -27 -135 -27s-93 9 -135 27s-78.833 42.667 -110.5 74s-56.5 68 -74.5 110
s-27 87 -27 135s9 93.167 27 135.5s42.667 79.166 74 110.499s68.166 56 110.499 74s87.5 27 135.5 27z" />
    <glyph glyph-name="Ocircumflex" unicode="&#xd4;" horiz-adv-x="760" 
d="M380 76c35.333 0 68.1689 6.66602 98.502 19.999s56.666 31.5 78.999 54.5s39.833 50.167 52.5 81.5s19 65.333 19 102c0 36 -6.33301 69.667 -19 101s-30.334 58.5 -53.001 81.5s-49 41.167 -79 54.5s-62.667 20 -98 20c-34.667 0 -67.167 -6.66699 -97.5 -20
s-56.833 -31.666 -79.5 -54.999s-40.334 -50.5 -53.001 -81.5s-19 -64.5 -19 -100.5c0 -36.667 6.33301 -70.667 19 -102s30.334 -58.5 53.001 -81.5s49.167 -41.167 79.5 -54.5s62.833 -20 97.5 -20zM551.003 734.999h-108l-61 62l-66 -62h-107l125 121h90z
M380.003 679.999c48 0 93.1689 -8.99902 135.502 -26.999s79.166 -42.667 110.499 -74s56 -68 74 -110s27 -87.333 27 -136c0 -48 -9 -93 -27 -135s-42.833 -78.667 -74.5 -110s-68.5 -56 -110.5 -74s-87 -27 -135 -27s-93 9 -135 27s-78.833 42.667 -110.5 74
s-56.5 68 -74.5 110s-27 87 -27 135s9 93.167 27 135.5s42.667 79.166 74 110.499s68.166 56 110.499 74s87.5 27 135.5 27z" />
    <glyph glyph-name="Otilde" unicode="&#xd5;" horiz-adv-x="760" 
d="M380 76c35.333 0 68.1689 6.66602 98.502 19.999s56.666 31.5 78.999 54.5s39.833 50.167 52.5 81.5s19 65.333 19 102c0 36 -6.33301 69.667 -19 101s-30.334 58.5 -53.001 81.5s-49 41.167 -79 54.5s-62.667 20 -98 20c-34.667 0 -67.167 -6.66699 -97.5 -20
s-56.833 -31.666 -79.5 -54.999s-40.334 -50.5 -53.001 -81.5s-19 -64.5 -19 -100.5c0 -36.667 6.33301 -70.667 19 -102s30.334 -58.5 53.001 -81.5s49.167 -41.167 79.5 -54.5s62.833 -20 97.5 -20zM550.003 785.999c-34.667 -27.333 -68.333 -40.998 -101 -40.998
c-13.333 0 -43.666 5.66699 -90.999 17c-11.333 2.66699 -19.5 4.33398 -24.5 5.00098s-10.167 1 -15.5 1c-10 0 -19.5 -1.33301 -28.5 -4s-21.167 -7.66699 -36.5 -15l-43 58c20.667 13.333 38.167 22.666 52.5 27.999s28.5 8 42.5 8c6 0 12.333 -0.5 19 -1.5
s16 -3.16699 28 -6.5c26 -6.66699 44.667 -11 56 -13s20.666 -3 27.999 -3c9.33301 0 17.833 1.16699 25.5 3.5s19.167 7.16602 34.5 14.499c4.66699 1.33301 9.66699 3.66602 15 6.99902zM380.004 680.001c48 0 93.1689 -8.99902 135.502 -26.999
s79.166 -42.667 110.499 -74s56 -68 74 -110s27 -87.333 27 -136c0 -48 -9 -93 -27 -135s-42.833 -78.667 -74.5 -110s-68.5 -56 -110.5 -74s-87 -27 -135 -27s-93 9 -135 27s-78.833 42.667 -110.5 74s-56.5 68 -74.5 110s-27 87 -27 135s9 93.167 27 135.5
s42.667 79.166 74 110.499s68.166 56 110.499 74s87.5 27 135.5 27z" />
    <glyph glyph-name="Odieresis" unicode="&#xd6;" horiz-adv-x="760" 
d="M380 76c35.333 0 68.1689 6.66602 98.502 19.999s56.666 31.5 78.999 54.5s39.833 50.167 52.5 81.5s19 65.333 19 102c0 36 -6.33301 69.667 -19 101s-30.334 58.5 -53.001 81.5s-49 41.167 -79 54.5s-62.667 20 -98 20c-34.667 0 -67.167 -6.66699 -97.5 -20
s-56.833 -31.666 -79.5 -54.999s-40.334 -50.5 -53.001 -81.5s-19 -64.5 -19 -100.5c0 -36.667 6.33301 -70.667 19 -102s30.334 -58.5 53.001 -81.5s49.167 -41.167 79.5 -54.5s62.833 -20 97.5 -20zM257.003 849.999h93v-110h-93v110zM410.003 849.999h93v-110h-93v110z
M380.003 679.999c48 0 93.1689 -8.99902 135.502 -26.999s79.166 -42.667 110.499 -74s56 -68 74 -110s27 -87.333 27 -136c0 -48 -9 -93 -27 -135s-42.833 -78.667 -74.5 -110s-68.5 -56 -110.5 -74s-87 -27 -135 -27s-93 9 -135 27s-78.833 42.667 -110.5 74
s-56.5 68 -74.5 110s-27 87 -27 135s9 93.167 27 135.5s42.667 79.166 74 110.499s68.166 56 110.499 74s87.5 27 135.5 27z" />
    <glyph glyph-name="multiply" unicode="&#xd7;" horiz-adv-x="549" 
d="M275 193l-174 -174l-44 44l174 173l-174 173l44 44l174 -173l173 172l44 -43l-174 -173l174 -173l-44 -44z" />
    <glyph glyph-name="Oslash" unicode="&#xd8;" horiz-adv-x="760" 
d="M131 334c0 -64.667 21.333 -122.999 64 -174.999l299 406c-10.667 5.33301 -20.167 9.66602 -28.5 12.999s-16.5 6 -24.5 8s-16.667 3.33301 -26 4s-20.333 1 -33 1c-40 0 -75.167 -7 -105.5 -21s-57.5 -35.333 -81.5 -64c-20.667 -24 -36.5 -51 -47.5 -81
s-16.5 -60.333 -16.5 -91zM629 334.001c0 62 -21.665 119.999 -64.998 173.999l-300 -405c18.667 -9.33301 37.167 -16.166 55.5 -20.499s38.5 -6.5 60.5 -6.5c35.333 0 68.166 6.66699 98.499 20s56.666 31.5 78.999 54.5s39.833 50.167 52.5 81.5s19 65.333 19 102z
M620.002 584c34.667 -34 61.168 -72.332 79.501 -114.999s27.5 -88 27.5 -136s-9 -93 -27 -135s-42.833 -78.667 -74.5 -110s-68.5 -56 -110.5 -74s-87 -27 -135 -27c-60.667 0 -117.334 14.667 -170.001 44l-64 -86l-71 52l65 87c-71.333 70 -107 153 -107 249
c0 48 9 93.167 27 135.5s42.667 79.166 74 110.499s68 56 110 74s87 27 135 27c60.667 0 117 -14 169 -42l63 85l74 -52z" />
    <glyph glyph-name="Ugrave" unicode="&#xd9;" horiz-adv-x="567" 
d="M374 717l-203 110l38 70l201 -115zM507 667l0.000976562 -462.998c0 -32 -4.83301 -59.667 -14.5 -83s-25.167 -45.666 -46.5 -66.999c-46 -44.667 -100.667 -67 -164 -67c-31.333 0 -60.5 5.66699 -87.5 17s-50.5 26.666 -70.5 45.999s-35.667 42.166 -47 68.499
s-17 54.833 -17 85.5v463h97v-450c0 -44 11.333 -78.5 34 -103.5s53.667 -37.5 93 -37.5c38 0 69 12.667 93 38c13.333 13.333 22.166 27.166 26.499 41.499s6.5 34.833 6.5 61.5v450h97z" />
    <glyph glyph-name="Uacute" unicode="&#xda;" horiz-adv-x="567" 
d="M194 717l-37 65l201 115l39 -70zM507 667l0.000976562 -462.998c0 -32 -4.83301 -59.667 -14.5 -83s-25.167 -45.666 -46.5 -66.999c-46 -44.667 -100.667 -67 -164 -67c-31.333 0 -60.5 5.66699 -87.5 17s-50.5 26.666 -70.5 45.999s-35.667 42.166 -47 68.499
s-17 54.833 -17 85.5v463h97v-450c0 -44 11.333 -78.5 34 -103.5s53.667 -37.5 93 -37.5c38 0 69 12.667 93 38c13.333 13.333 22.166 27.166 26.499 41.499s6.5 34.833 6.5 61.5v450h97z" />
    <glyph glyph-name="Ucircumflex" unicode="&#xdb;" horiz-adv-x="567" 
d="M455 735h-108l-62 62l-65 -62h-107l125 121h90zM507 667l0.000976562 -462.998c0 -32 -4.83301 -59.667 -14.5 -83s-25.167 -45.666 -46.5 -66.999c-46 -44.667 -100.667 -67 -164 -67c-31.333 0 -60.5 5.66699 -87.5 17s-50.5 26.666 -70.5 45.999
s-35.667 42.166 -47 68.499s-17 54.833 -17 85.5v463h97v-450c0 -44 11.333 -78.5 34 -103.5s53.667 -37.5 93 -37.5c38 0 69 12.667 93 38c13.333 13.333 22.166 27.166 26.499 41.499s6.5 34.833 6.5 61.5v450h97z" />
    <glyph glyph-name="Udieresis" unicode="&#xdc;" horiz-adv-x="567" 
d="M160 850h94v-110h-94v110zM314 850h93v-110h-93v110zM507 667l0.000976562 -462.998c0 -32 -4.83301 -59.667 -14.5 -83s-25.167 -45.666 -46.5 -66.999c-46 -44.667 -100.667 -67 -164 -67c-31.333 0 -60.5 5.66699 -87.5 17s-50.5 26.666 -70.5 45.999
s-35.667 42.166 -47 68.499s-17 54.833 -17 85.5v463h97v-450c0 -44 11.333 -78.5 34 -103.5s53.667 -37.5 93 -37.5c38 0 69 12.667 93 38c13.333 13.333 22.166 27.166 26.499 41.499s6.5 34.833 6.5 61.5v450h97z" />
    <glyph glyph-name="germandbls" unicode="&#xdf;" horiz-adv-x="571" 
d="M151 175l75.002 0.000976562c5.33301 -32 17.666 -57.167 36.999 -75.5s43.666 -27.5 72.999 -27.5c15.333 0 29.666 3 42.999 9s25 14.167 35 24.5s17.833 22.666 23.5 36.999s8.5 29.5 8.5 45.5c0 35.333 -12.167 62.833 -36.5 82.5s-58.166 29.5 -101.499 29.5h-65v83
c36.667 1.33301 65 11 85 29s30 43.333 30 76c0 15.333 -2.66699 29.5 -8 42.5s-12.666 24.167 -21.999 33.5s-20.333 16.833 -33 22.5s-26.334 8.5 -41.001 8.5c-34 0 -59.667 -11.167 -77 -33.5s-26 -54.5 -26 -96.5v-290zM57.002 0.000976562v465.002
c0 32 4.66699 61.167 14 87.5s22.666 49 39.999 68s38 33.667 62 44s50.333 15.5 79 15.5c27.333 0 53 -5.16699 77 -15.5s45 -24.5 63 -42.5s32.333 -38.833 43 -62.5s16 -49.167 16 -76.5c0 -25.333 -3.83301 -46 -11.5 -62s-21.167 -31.667 -40.5 -47
c25.333 -6 45.833 -14.167 61.5 -24.5s30.834 -26.166 45.501 -47.499c12 -17.333 20.5 -34 25.5 -50s7.5 -34.333 7.5 -55c0 -30 -5.16699 -57.833 -15.5 -83.5s-24.833 -47.834 -43.5 -66.501s-40.5 -33.334 -65.5 -44.001s-52.5 -16 -82.5 -16
c-27.333 0 -51.666 4 -72.999 12s-42 21 -62 39c-13.333 11.333 -22.833 21.666 -28.5 30.999s-11.834 23.333 -18.501 42v-111h-93z" />
    <glyph glyph-name="agrave" unicode="&#xe0;" horiz-adv-x="621" 
d="M296 72c24 0 46.3311 4.66797 66.998 14.001s38.834 22 54.501 38s28 34.667 37 56s13.5 44 13.5 68c0 25.333 -4.5 48.833 -13.5 70.5s-21.167 40.667 -36.5 57s-33.5 29.166 -54.5 38.499s-43.5 14 -67.5 14s-46.333 -4.66699 -67 -14s-38.667 -22 -54 -38
s-27.5 -34.833 -36.5 -56.5s-13.5 -45.167 -13.5 -70.5c0 -24 4.5 -46.833 13.5 -68.5s21.333 -40.5 37 -56.5s33.834 -28.667 54.501 -38s42.667 -14 66 -14zM362.998 553.001l-175 131l44 55l174 -131zM560.998 0.000976562h-85.999v78
c-9.33301 -14.667 -17.5 -25.667 -24.5 -33s-16.833 -14.666 -29.5 -21.999c-38 -24 -82.667 -36 -134 -36c-36 0 -69.667 6.66699 -101 20s-58.333 31.666 -81 54.999s-40.5 51 -53.5 83s-19.5 66.333 -19.5 103c0 38 6.66699 73.167 20 105.5s31.666 60.333 54.999 84
s50.833 42.167 82.5 55.5s66.167 20 103.5 20c38 0 73.667 -7.83301 107 -23.5s58.333 -36.167 75 -61.5v72h86v-500z" />
    <glyph glyph-name="aacute" unicode="&#xe1;" horiz-adv-x="621" 
d="M296 72c24 0 46.3311 4.66797 66.998 14.001s38.834 22 54.501 38s28 34.667 37 56s13.5 44 13.5 68c0 25.333 -4.5 48.833 -13.5 70.5s-21.167 40.667 -36.5 57s-33.5 29.166 -54.5 38.499s-43.5 14 -67.5 14s-46.333 -4.66699 -67 -14s-38.667 -22 -54 -38
s-27.5 -34.833 -36.5 -56.5s-13.5 -45.167 -13.5 -70.5c0 -24 4.5 -46.833 13.5 -68.5s21.333 -40.5 37 -56.5s33.834 -28.667 54.501 -38s42.667 -14 66 -14zM231.998 553.001l-44 55l175 131l43 -55zM560.998 0.000976562h-85.999v78
c-9.33301 -14.667 -17.5 -25.667 -24.5 -33s-16.833 -14.666 -29.5 -21.999c-38 -24 -82.667 -36 -134 -36c-36 0 -69.667 6.66699 -101 20s-58.333 31.666 -81 54.999s-40.5 51 -53.5 83s-19.5 66.333 -19.5 103c0 38 6.66699 73.167 20 105.5s31.666 60.333 54.999 84
s50.833 42.167 82.5 55.5s66.167 20 103.5 20c38 0 73.667 -7.83301 107 -23.5s58.333 -36.167 75 -61.5v72h86v-500z" />
    <glyph glyph-name="acircumflex" unicode="&#xe2;" horiz-adv-x="621" 
d="M296 72c24 0 46.3311 4.66797 66.998 14.001s38.834 22 54.501 38s28 34.667 37 56s13.5 44 13.5 68c0 25.333 -4.5 48.833 -13.5 70.5s-21.167 40.667 -36.5 57s-33.5 29.166 -54.5 38.499s-43.5 14 -67.5 14s-46.333 -4.66699 -67 -14s-38.667 -22 -54 -38
s-27.5 -34.833 -36.5 -56.5s-13.5 -45.167 -13.5 -70.5c0 -24 4.5 -46.833 13.5 -68.5s21.333 -40.5 37 -56.5s33.834 -28.667 54.501 -38s42.667 -14 66 -14zM459.998 563.001h-103l-55 76l-58 -76h-103l114 135h90zM560.998 0.000976562h-85.999v78
c-9.33301 -14.667 -17.5 -25.667 -24.5 -33s-16.833 -14.666 -29.5 -21.999c-38 -24 -82.667 -36 -134 -36c-36 0 -69.667 6.66699 -101 20s-58.333 31.666 -81 54.999s-40.5 51 -53.5 83s-19.5 66.333 -19.5 103c0 38 6.66699 73.167 20 105.5s31.666 60.333 54.999 84
s50.833 42.167 82.5 55.5s66.167 20 103.5 20c38 0 73.667 -7.83301 107 -23.5s58.333 -36.167 75 -61.5v72h86v-500z" />
    <glyph glyph-name="atilde" unicode="&#xe3;" horiz-adv-x="621" 
d="M296 72c24 0 46.3311 4.66797 66.998 14.001s38.834 22 54.501 38s28 34.667 37 56s13.5 44 13.5 68c0 25.333 -4.5 48.833 -13.5 70.5s-21.167 40.667 -36.5 57s-33.5 29.166 -54.5 38.499s-43.5 14 -67.5 14s-46.333 -4.66699 -67 -14s-38.667 -22 -54 -38
s-27.5 -34.833 -36.5 -56.5s-13.5 -45.167 -13.5 -70.5c0 -24 4.5 -46.833 13.5 -68.5s21.333 -40.5 37 -56.5s33.834 -28.667 54.501 -38s42.667 -14 66 -14zM470.998 625.001c-11.333 -13.333 -25.6641 -24.166 -42.9971 -32.499s-34.666 -12.5 -51.999 -12.5
c-13.333 0 -42 5.66699 -86 17c-10.667 2.66699 -18.334 4.33398 -23.001 5.00098s-9.66699 1 -15 1c-9.33301 0 -18.166 -1.33301 -26.499 -4s-19.833 -7.66699 -34.5 -15l-40 59c19.333 13.333 35.666 22.5 48.999 27.5s26.666 7.5 39.999 7.5
c5.33301 0 11.333 -0.5 18 -1.5s15.667 -3.16699 27 -6.5c24.667 -6.66699 42.167 -11 52.5 -13s19.166 -3 26.499 -3c8 0 15.333 1.16699 22 3.5s17.667 7.16602 33 14.499c2 0.666992 4.16699 1.66699 6.5 3s5.16602 2.66602 8.49902 3.99902zM561 0.000976562h-85.999v78
c-9.33301 -14.667 -17.5 -25.667 -24.5 -33s-16.833 -14.666 -29.5 -21.999c-38 -24 -82.667 -36 -134 -36c-36 0 -69.667 6.66699 -101 20s-58.333 31.666 -81 54.999s-40.5 51 -53.5 83s-19.5 66.333 -19.5 103c0 38 6.66699 73.167 20 105.5s31.666 60.333 54.999 84
s50.833 42.167 82.5 55.5s66.167 20 103.5 20c38 0 73.667 -7.83301 107 -23.5s58.333 -36.167 75 -61.5v72h86v-500z" />
    <glyph glyph-name="adieresis" unicode="&#xe4;" horiz-adv-x="621" 
d="M296 72c24 0 46.3311 4.66797 66.998 14.001s38.834 22 54.501 38s28 34.667 37 56s13.5 44 13.5 68c0 25.333 -4.5 48.833 -13.5 70.5s-21.167 40.667 -36.5 57s-33.5 29.166 -54.5 38.499s-43.5 14 -67.5 14s-46.333 -4.66699 -67 -14s-38.667 -22 -54 -38
s-27.5 -34.833 -36.5 -56.5s-13.5 -45.167 -13.5 -70.5c0 -24 4.5 -46.833 13.5 -68.5s21.333 -40.5 37 -56.5s33.834 -28.667 54.501 -38s42.667 -14 66 -14zM183.998 683.001h91v-110h-91v110zM331.998 683.001h90v-110h-90v110zM560.998 0.000976562h-85.999v78
c-9.33301 -14.667 -17.5 -25.667 -24.5 -33s-16.833 -14.666 -29.5 -21.999c-38 -24 -82.667 -36 -134 -36c-36 0 -69.667 6.66699 -101 20s-58.333 31.666 -81 54.999s-40.5 51 -53.5 83s-19.5 66.333 -19.5 103c0 38 6.66699 73.167 20 105.5s31.666 60.333 54.999 84
s50.833 42.167 82.5 55.5s66.167 20 103.5 20c38 0 73.667 -7.83301 107 -23.5s58.333 -36.167 75 -61.5v72h86v-500z" />
    <glyph glyph-name="aring" unicode="&#xe5;" horiz-adv-x="621" 
d="M365 653c0 14 -4.66699 26 -14 36s-20.666 15 -33.999 15s-24.833 -5 -34.5 -15s-14.5 -22 -14.5 -36s4.83301 -25.833 14.5 -35.5s21.167 -14.5 34.5 -14.5s24.666 4.83301 33.999 14.5s14 21.5 14 35.5zM296 72c24 0 46.3311 4.66797 66.998 14.001
s38.834 22 54.501 38s28 34.667 37 56s13.5 44 13.5 68c0 25.333 -4.5 48.833 -13.5 70.5s-21.167 40.667 -36.5 57s-33.5 29.166 -54.5 38.499s-43.5 14 -67.5 14s-46.333 -4.66699 -67 -14s-38.667 -22 -54 -38s-27.5 -34.833 -36.5 -56.5s-13.5 -45.167 -13.5 -70.5
c0 -24 4.5 -46.833 13.5 -68.5s21.333 -40.5 37 -56.5s33.834 -28.667 54.501 -38s42.667 -14 66 -14zM216.998 653.001c0 14 2.66699 27.167 8 39.5s12.5 23 21.5 32s19.5 16 31.5 21s25 7.5 39 7.5s27 -2.5 39 -7.5s22.5 -12 31.5 -21s16.167 -19.667 21.5 -32
s8 -25.5 8 -39.5c0 -28 -9.66699 -51.667 -29 -71s-43 -29 -71 -29c-14 0 -27 2.66699 -39 8s-22.5 12.5 -31.5 21.5s-16.167 19.5 -21.5 31.5s-8 25 -8 39zM560.998 0.000976562h-85.999v78c-9.33301 -14.667 -17.5 -25.667 -24.5 -33s-16.833 -14.666 -29.5 -21.999
c-38 -24 -82.667 -36 -134 -36c-36 0 -69.667 6.66699 -101 20s-58.333 31.666 -81 54.999s-40.5 51 -53.5 83s-19.5 66.333 -19.5 103c0 38 6.66699 73.167 20 105.5s31.666 60.333 54.999 84s50.833 42.167 82.5 55.5s66.167 20 103.5 20c38 0 73.667 -7.83301 107 -23.5
s58.333 -36.167 75 -61.5v72h86v-500z" />
    <glyph glyph-name="ae" unicode="&#xe6;" horiz-adv-x="1014" 
d="M888 281c-2 22 -7.16699 42 -15.5 60s-19.5 33.5 -33.5 46.5s-30.5 23 -49.5 30s-39.833 10.5 -62.5 10.5c-46 0 -83.5 -13 -112.5 -39s-46.167 -62 -51.5 -108h325zM294 72c25.333 0 48.668 4.66992 70.001 14.0029s39.666 22 54.999 38s27.5 35 36.5 57
s13.5 45.667 13.5 71s-4.5 48.666 -13.5 69.999s-21.167 39.833 -36.5 55.5s-33.666 28 -54.999 37s-44.333 13.5 -69 13.5s-47.334 -4.33301 -68.001 -13s-38.5 -20.834 -53.5 -36.501s-26.833 -34.334 -35.5 -56.001s-13 -45.167 -13 -70.5c0 -26 4.33301 -50 13 -72
s20.5 -41 35.5 -57s32.833 -28.5 53.5 -37.5s43 -13.5 67 -13.5zM982.002 252.003c0 -5.33301 -0.166992 -11.498 -0.5 -18.498s-0.833008 -15.167 -1.5 -24.5h-417c3.33301 -20 10 -38.333 20 -55s22.333 -31 37 -43s31 -21.5 49 -28.5s37 -10.5 57 -10.5
c30.667 0 59 7.66699 85 23s46 36.333 60 63h96c-18.667 -51.333 -50 -92.666 -94 -123.999c-19.333 -14 -43 -25.333 -71 -34s-54 -13 -78 -13c-31.333 0 -59.333 5.16699 -84 15.5s-51.667 28.833 -81 55.5v-58h-85v58c-28 -26 -55.167 -44.333 -81.5 -55
s-57.5 -16 -93.5 -16c-38 0 -73.167 6.83301 -105.5 20.5s-60.5 32.334 -84.5 56.001s-42.833 51.834 -56.5 84.501s-20.5 68 -20.5 106c0 36.667 6.83301 70.667 20.5 102s32.334 58.666 56.001 81.999s51.5 41.666 83.5 54.999s66.667 20 104 20c36 0 69 -6 99 -18
s56.333 -30 79 -54v59h85v-59c21.333 23.333 46.166 41.166 74.499 53.499s59.5 18.5 93.5 18.5c35.333 0 68.5 -6.83301 99.5 -20.5s58 -32.334 81 -56.001s41.167 -51.334 54.5 -83.001s20 -65.5 20 -101.5z" />
    <glyph glyph-name="ccedilla" unicode="&#xe7;" horiz-adv-x="558" 
d="M533 165c-17.333 -51.333 -45.835 -92.6689 -85.502 -124.002s-85.167 -49 -136.5 -53l-21 -49c3.33301 0.666992 6.66602 1 9.99902 1h8c21.333 0 39 -7.33301 53 -22s21 -32.667 21 -54c0 -24.667 -8.33301 -45 -25 -61s-37.667 -24 -63 -24
c-23.333 0 -42.666 6.66699 -57.999 20s-24 31.333 -26 54h48c6.66699 -19.333 19 -29 37 -29c11.333 0 20.5 3.5 27.5 10.5s10.5 15.833 10.5 26.5s-3.5 19.334 -10.5 26.001s-16.167 10 -27.5 10c-6.66699 0 -12.167 -1 -16.5 -3s-9.16602 -5.66699 -14.499 -11l-30 30
l31 75c-33.333 2.66699 -64.333 11.167 -93 25.5s-53.334 33.333 -74.001 57s-36.834 50.834 -48.501 81.501s-17.5 63.667 -17.5 99c0 36.667 6.66699 71 20 103s31.5 59.667 54.5 83s50.167 41.833 81.5 55.5s65 20.5 101 20.5c28.667 0 56.334 -4.5 83.001 -13.5
s50.834 -21.5 72.501 -37.5s40.334 -35 56.001 -57s26.5 -46 32.5 -72h-104c-18.667 34 -38.667 58.333 -60 73s-48 22 -80 22c-23.333 0 -45 -4.5 -65 -13.5s-37.333 -21.333 -52 -37s-26.167 -34.334 -34.5 -56.001s-12.5 -45.167 -12.5 -70.5
c0 -24.667 4.33301 -47.834 13 -69.501s20.167 -40.667 34.5 -57s31.333 -29.166 51 -38.499s40.5 -14 62.5 -14c30 0 58 8.33301 84 25s45.667 39.334 59 68.001h104z" />
    <glyph glyph-name="egrave" unicode="&#xe8;" horiz-adv-x="574" 
d="M165 377c-12 -13.333 -20.6689 -26.5 -26.002 -39.5s-9.66602 -31.833 -12.999 -56.5h323c-0.666992 20.667 -5.66699 40.167 -15 58.5s-21.166 34.166 -35.499 47.499s-31 24 -50 32s-39.167 12 -60.5 12c-23.333 0 -45.833 -4.66699 -67.5 -14
s-40.167 -22.666 -55.5 -39.999zM351.998 553l-174 131l44 55l174 -131zM525.998 157c-9.33301 -26 -22.001 -49.499 -38.001 -70.499s-34.333 -38.833 -55 -53.5s-43.334 -26 -68.001 -34s-50.667 -12 -78 -12c-34.667 0 -67.5 7 -98.5 21s-58.167 33 -81.5 57
s-41.666 52 -54.999 84s-20 66 -20 102c0 36.667 6.66699 71.167 20 103.5s31.666 60.5 54.999 84.5s50.5 43 81.5 57s64.5 21 100.5 21c34.667 0 67.334 -6.83301 98.001 -20.5s57.5 -32.334 80.5 -56.001s41.167 -51.167 54.5 -82.5s20 -65 20 -101
c0 -10.667 -1 -26.667 -3 -48h-413c10 -42 29.833 -75.333 59.5 -100s64.834 -37 105.501 -37c30 0 57 7.16699 81 21.5s44 35.5 60 63.5h94z" />
    <glyph glyph-name="eacute" unicode="&#xe9;" horiz-adv-x="574" 
d="M165 377c-12 -13.333 -20.6689 -26.5 -26.002 -39.5s-9.66602 -31.833 -12.999 -56.5h323c-0.666992 20.667 -5.66699 40.167 -15 58.5s-21.166 34.166 -35.499 47.499s-31 24 -50 32s-39.167 12 -60.5 12c-23.333 0 -45.833 -4.66699 -67.5 -14
s-40.167 -22.666 -55.5 -39.999zM221.998 553l-44 55l174 131l44 -55zM525.998 157c-9.33301 -26 -22.001 -49.499 -38.001 -70.499s-34.333 -38.833 -55 -53.5s-43.334 -26 -68.001 -34s-50.667 -12 -78 -12c-34.667 0 -67.5 7 -98.5 21s-58.167 33 -81.5 57
s-41.666 52 -54.999 84s-20 66 -20 102c0 36.667 6.66699 71.167 20 103.5s31.666 60.5 54.999 84.5s50.5 43 81.5 57s64.5 21 100.5 21c34.667 0 67.334 -6.83301 98.001 -20.5s57.5 -32.334 80.5 -56.001s41.167 -51.167 54.5 -82.5s20 -65 20 -101
c0 -10.667 -1 -26.667 -3 -48h-413c10 -42 29.833 -75.333 59.5 -100s64.834 -37 105.501 -37c30 0 57 7.16699 81 21.5s44 35.5 60 63.5h94z" />
    <glyph glyph-name="ecircumflex" unicode="&#xea;" horiz-adv-x="574" 
d="M165 377c-12 -13.333 -20.6689 -26.5 -26.002 -39.5s-9.66602 -31.833 -12.999 -56.5h323c-0.666992 20.667 -5.66699 40.167 -15 58.5s-21.166 34.166 -35.499 47.499s-31 24 -50 32s-39.167 12 -60.5 12c-23.333 0 -45.833 -4.66699 -67.5 -14
s-40.167 -22.666 -55.5 -39.999zM445.998 563h-102l-56 76l-58 -76h-102l113 135h90zM525.998 157c-9.33301 -26 -22.001 -49.499 -38.001 -70.499s-34.333 -38.833 -55 -53.5s-43.334 -26 -68.001 -34s-50.667 -12 -78 -12c-34.667 0 -67.5 7 -98.5 21s-58.167 33 -81.5 57
s-41.666 52 -54.999 84s-20 66 -20 102c0 36.667 6.66699 71.167 20 103.5s31.666 60.5 54.999 84.5s50.5 43 81.5 57s64.5 21 100.5 21c34.667 0 67.334 -6.83301 98.001 -20.5s57.5 -32.334 80.5 -56.001s41.167 -51.167 54.5 -82.5s20 -65 20 -101
c0 -10.667 -1 -26.667 -3 -48h-413c10 -42 29.833 -75.333 59.5 -100s64.834 -37 105.501 -37c30 0 57 7.16699 81 21.5s44 35.5 60 63.5h94z" />
    <glyph glyph-name="edieresis" unicode="&#xeb;" horiz-adv-x="574" 
d="M165 377c-12 -13.333 -20.6689 -26.5 -26.002 -39.5s-9.66602 -31.833 -12.999 -56.5h323c-0.666992 20.667 -5.66699 40.167 -15 58.5s-21.166 34.166 -35.499 47.499s-31 24 -50 32s-39.167 12 -60.5 12c-23.333 0 -45.833 -4.66699 -67.5 -14
s-40.167 -22.666 -55.5 -39.999zM174.998 683h90v-110h-90v110zM321.998 683h91v-110h-91v110zM525.998 157c-9.33301 -26 -22.001 -49.499 -38.001 -70.499s-34.333 -38.833 -55 -53.5s-43.334 -26 -68.001 -34s-50.667 -12 -78 -12c-34.667 0 -67.5 7 -98.5 21
s-58.167 33 -81.5 57s-41.666 52 -54.999 84s-20 66 -20 102c0 36.667 6.66699 71.167 20 103.5s31.666 60.5 54.999 84.5s50.5 43 81.5 57s64.5 21 100.5 21c34.667 0 67.334 -6.83301 98.001 -20.5s57.5 -32.334 80.5 -56.001s41.167 -51.167 54.5 -82.5s20 -65 20 -101
c0 -10.667 -1 -26.667 -3 -48h-413c10 -42 29.833 -75.333 59.5 -100s64.834 -37 105.501 -37c30 0 57 7.16699 81 21.5s44 35.5 60 63.5h94z" />
    <glyph glyph-name="igrave" unicode="&#xec;" horiz-adv-x="213" 
d="M172 553l-174 131l43 55l175 -131zM153 500v-500h-93v500h93z" />
    <glyph glyph-name="iacute" unicode="&#xed;" horiz-adv-x="213" 
d="M41 553l-43 55l174 131l44 -55zM153 500v-500h-93v500h93z" />
    <glyph glyph-name="icircumflex" unicode="&#xee;" horiz-adv-x="213" 
d="M223 563h-75l-40 76l-43 -76h-74l82 135h66zM153 500v-500h-93v500h93z" />
    <glyph glyph-name="idieresis" unicode="&#xef;" horiz-adv-x="213" 
d="M0 683h85v-110h-85v110zM128 683h86v-110h-86v110zM153 500v-500h-93v500h93z" />
    <glyph glyph-name="ntilde" unicode="&#xf1;" horiz-adv-x="559" 
d="M440 625c-11.333 -13.333 -25.6641 -24.166 -42.9971 -32.499s-34.666 -12.5 -51.999 -12.5c-13.333 0 -42 5.66699 -86 17c-10.667 2.66699 -18.334 4.33398 -23.001 5.00098s-9.66699 1 -15 1c-9.33301 0 -18.166 -1.33301 -26.499 -4s-19.833 -7.66699 -34.5 -15
l-40 59c19.333 13.333 35.666 22.5 48.999 27.5s26.666 7.5 39.999 7.5c5.33301 0 11.333 -0.5 18 -1.5s15.667 -3.16699 27 -6.5c24.667 -6.66699 42.167 -11 52.5 -13s19.166 -3 26.499 -3c8 0 15.333 1.16699 22 3.5s17.667 7.16602 33 14.499
c2 0.666992 4.16699 1.66699 6.5 3s5.16602 2.66602 8.49902 3.99902zM503.002 0l-93.9971 0.000976562v272c0 24.667 -1.66699 45.5 -5 62.5s-8.66602 31.167 -15.999 42.5c-10 16 -24.167 28.5 -42.5 37.5s-38.833 13.5 -61.5 13.5
c-40.667 0 -72.334 -13.833 -95.001 -41.5s-34 -65.834 -34 -114.501v-272h-95v500h87v-53c33.333 44 82.666 66 147.999 66c31.333 0 59.666 -5 84.999 -15s47.166 -24 65.499 -42s32.5 -39.667 42.5 -65s15 -53.333 15 -84v-307z" />
    <glyph glyph-name="ograve" unicode="&#xf2;" horiz-adv-x="603" 
d="M301 72c24.667 0 47.667 4.66699 69 14s40 22.166 56 38.499s28.5 35.333 37.5 57s13.5 44.834 13.5 69.501s-4.66699 47.667 -14 69s-22 40 -38 56s-34.667 28.667 -56 38s-44 14 -68 14s-46.667 -4.66699 -68 -14s-40 -22 -56 -38s-28.667 -34.667 -38 -56
s-14 -44.333 -14 -69s4.66699 -47.834 14 -69.501s22 -40.667 38 -57s34.667 -29.166 56 -38.499s44 -14 68 -14zM367 553l-175 131l44 55l174 -131zM301 513c37.333 0 72.333 -6.83301 105 -20.5s61.334 -32.167 86.001 -55.5s44 -50.833 58 -82.5s21 -65.5 21 -101.5
c0 -36.667 -7 -71.167 -21 -103.5s-33.333 -60.5 -58 -84.5s-53.334 -43 -86.001 -57s-67.667 -21 -105 -21c-36.667 0 -71.334 7 -104.001 21s-61.334 33 -86.001 57s-44 52.167 -58 84.5s-21 66.833 -21 103.5c0 36 7 69.833 21 101.5s33.333 59.167 58 82.5
s53.334 41.833 86.001 55.5s67.334 20.5 104.001 20.5z" />
    <glyph glyph-name="oacute" unicode="&#xf3;" horiz-adv-x="603" 
d="M301 72c24.667 0 47.667 4.66699 69 14s40 22.166 56 38.499s28.5 35.333 37.5 57s13.5 44.834 13.5 69.501s-4.66699 47.667 -14 69s-22 40 -38 56s-34.667 28.667 -56 38s-44 14 -68 14s-46.667 -4.66699 -68 -14s-40 -22 -56 -38s-28.667 -34.667 -38 -56
s-14 -44.333 -14 -69s4.66699 -47.834 14 -69.501s22 -40.667 38 -57s34.667 -29.166 56 -38.499s44 -14 68 -14zM236 553l-44 55l175 131l43 -55zM301 513c37.333 0 72.333 -6.83301 105 -20.5s61.334 -32.167 86.001 -55.5s44 -50.833 58 -82.5s21 -65.5 21 -101.5
c0 -36.667 -7 -71.167 -21 -103.5s-33.333 -60.5 -58 -84.5s-53.334 -43 -86.001 -57s-67.667 -21 -105 -21c-36.667 0 -71.334 7 -104.001 21s-61.334 33 -86.001 57s-44 52.167 -58 84.5s-21 66.833 -21 103.5c0 36 7 69.833 21 101.5s33.333 59.167 58 82.5
s53.334 41.833 86.001 55.5s67.334 20.5 104.001 20.5z" />
    <glyph glyph-name="ocircumflex" unicode="&#xf4;" horiz-adv-x="603" 
d="M301 72c24.667 0 47.667 4.66699 69 14s40 22.166 56 38.499s28.5 35.333 37.5 57s13.5 44.834 13.5 69.501s-4.66699 47.667 -14 69s-22 40 -38 56s-34.667 28.667 -56 38s-44 14 -68 14s-46.667 -4.66699 -68 -14s-40 -22 -56 -38s-28.667 -34.667 -38 -56
s-14 -44.333 -14 -69s4.66699 -47.834 14 -69.501s22 -40.667 38 -57s34.667 -29.166 56 -38.499s44 -14 68 -14zM461 563h-103l-55 76l-59 -76h-102l114 135h90zM301 513c37.333 0 72.333 -6.83301 105 -20.5s61.334 -32.167 86.001 -55.5s44 -50.833 58 -82.5
s21 -65.5 21 -101.5c0 -36.667 -7 -71.167 -21 -103.5s-33.333 -60.5 -58 -84.5s-53.334 -43 -86.001 -57s-67.667 -21 -105 -21c-36.667 0 -71.334 7 -104.001 21s-61.334 33 -86.001 57s-44 52.167 -58 84.5s-21 66.833 -21 103.5c0 36 7 69.833 21 101.5
s33.333 59.167 58 82.5s53.334 41.833 86.001 55.5s67.334 20.5 104.001 20.5z" />
    <glyph glyph-name="otilde" unicode="&#xf5;" horiz-adv-x="603" 
d="M301 72c24.667 0 47.667 4.66699 69 14s40 22.166 56 38.499s28.5 35.333 37.5 57s13.5 44.834 13.5 69.501s-4.66699 47.667 -14 69s-22 40 -38 56s-34.667 28.667 -56 38s-44 14 -68 14s-46.667 -4.66699 -68 -14s-40 -22 -56 -38s-28.667 -34.667 -38 -56
s-14 -44.333 -14 -69s4.66699 -47.834 14 -69.501s22 -40.667 38 -57s34.667 -29.166 56 -38.499s44 -14 68 -14zM461 625c-10.667 -13.333 -24.665 -24.166 -41.998 -32.499s-34.666 -12.5 -51.999 -12.5c-13.333 0 -42 5.66699 -86 17
c-10.667 2.66699 -18.334 4.33398 -23.001 5.00098s-9.66699 1 -15 1c-9.33301 0 -18.166 -1.33301 -26.499 -4s-19.833 -7.66699 -34.5 -15l-41 59c19.333 13.333 35.833 22.5 49.5 27.5s27.167 7.5 40.5 7.5c5.33301 0 11.166 -0.5 17.499 -1.5
s15.166 -3.16699 26.499 -6.5c24.667 -6.66699 42.334 -11 53.001 -13s19.667 -3 27 -3c8 0 15.5 1.16699 22.5 3.5s17.833 7.16602 32.5 14.499c1.33301 0.666992 3.16602 1.66699 5.49902 3s5.16602 2.66602 8.49902 3.99902zM301.002 513
c37.333 0 72.333 -6.83301 105 -20.5s61.334 -32.167 86.001 -55.5s44 -50.833 58 -82.5s21 -65.5 21 -101.5c0 -36.667 -7 -71.167 -21 -103.5s-33.333 -60.5 -58 -84.5s-53.334 -43 -86.001 -57s-67.667 -21 -105 -21c-36.667 0 -71.334 7 -104.001 21
s-61.334 33 -86.001 57s-44 52.167 -58 84.5s-21 66.833 -21 103.5c0 36 7 69.833 21 101.5s33.333 59.167 58 82.5s53.334 41.833 86.001 55.5s67.334 20.5 104.001 20.5z" />
    <glyph glyph-name="odieresis" unicode="&#xf6;" horiz-adv-x="603" 
d="M301 72c24.667 0 47.667 4.66699 69 14s40 22.166 56 38.499s28.5 35.333 37.5 57s13.5 44.834 13.5 69.501s-4.66699 47.667 -14 69s-22 40 -38 56s-34.667 28.667 -56 38s-44 14 -68 14s-46.667 -4.66699 -68 -14s-40 -22 -56 -38s-28.667 -34.667 -38 -56
s-14 -44.333 -14 -69s4.66699 -47.834 14 -69.501s22 -40.667 38 -57s34.667 -29.166 56 -38.499s44 -14 68 -14zM182 683h91v-110h-91v110zM330 683h90v-110h-90v110zM301 513c37.333 0 72.333 -6.83301 105 -20.5s61.334 -32.167 86.001 -55.5s44 -50.833 58 -82.5
s21 -65.5 21 -101.5c0 -36.667 -7 -71.167 -21 -103.5s-33.333 -60.5 -58 -84.5s-53.334 -43 -86.001 -57s-67.667 -21 -105 -21c-36.667 0 -71.334 7 -104.001 21s-61.334 33 -86.001 57s-44 52.167 -58 84.5s-21 66.833 -21 103.5c0 36 7 69.833 21 101.5
s33.333 59.167 58 82.5s53.334 41.833 86.001 55.5s67.334 20.5 104.001 20.5z" />
    <glyph glyph-name="divide" unicode="&#xf7;" 
d="M33 377h434v-84h-434v84zM193 157c0 15.333 5.49902 28.5 16.499 39.5s24.5 16.5 40.5 16.5c15.333 0 28.666 -5.5 39.999 -16.5s17 -24.167 17 -39.5c0 -16 -5.66699 -29.5 -17 -40.5s-24.666 -16.5 -39.999 -16.5s-28.666 5.5 -39.999 16.5s-17 24.5 -17 40.5z
M192.999 513c0 16 5.49902 29.5 16.499 40.5s24.5 16.5 40.5 16.5c15.333 0 28.666 -5.5 39.999 -16.5s17 -24.5 17 -40.5c0 -15.333 -5.66699 -28.5 -17 -39.5s-24.666 -16.5 -39.999 -16.5s-28.666 5.5 -39.999 16.5s-17 24.167 -17 39.5z" />
    <glyph glyph-name="oslash" unicode="&#xf8;" horiz-adv-x="603" 
d="M125 250c0 -43.333 15.667 -83.332 47 -119.999l188 288c-12 4 -21.667 6.66699 -29 8s-17.333 2 -30 2c-24 0 -46.667 -4.66699 -68 -14s-40 -22 -56 -38s-28.667 -34.833 -38 -56.5s-14 -44.834 -14 -69.501zM477 250.001c0 22 -4 43.499 -12 64.499s-19 39.5 -33 55.5
l-189 -288c12 -4 21.667 -6.66699 29 -8s17 -2 29 -2c24 0 46.667 4.66699 68 14s40 22 56 38s28.667 34.833 38 56.5s14 44.834 14 69.501zM482 446c28 -24 49.835 -53.001 65.502 -87.001s23.5 -69.333 23.5 -106s-7 -71.167 -21 -103.5s-33.333 -60.5 -58 -84.5
s-53.334 -43 -86.001 -57s-67.667 -21 -105 -21c-20 0 -38.167 1.5 -54.5 4.5s-33.833 8.5 -52.5 16.5l-46 -71l-71 48l45 69c-28.667 26 -50.834 56.333 -66.501 91s-23.5 70.667 -23.5 108c0 36 7 69.833 21 101.5s33.333 59.167 58 82.5s53.334 41.833 86.001 55.5
s67.334 20.5 104.001 20.5c19.333 0 37.666 -1.66699 54.999 -5s34.666 -8.66602 51.999 -15.999l46 71l72 -50z" />
    <glyph glyph-name="ugrave" unicode="&#xf9;" horiz-adv-x="559" 
d="M345 553l-175 131l44 55l174 -131zM57 500l93.001 -0.00195312v-272c0 -24.667 1.66699 -45.5 5 -62.5s8.66602 -31.167 15.999 -42.5c10.667 -16 25.167 -28.5 43.5 -37.5s38.5 -13.5 60.5 -13.5c40.667 0 72.5 13.833 95.5 41.5s34.5 65.834 34.5 114.501v272h94v-500
h-87v53c-14 -21.333 -34 -37.666 -60 -48.999s-55 -17 -87 -17c-31.333 0 -59.833 5 -85.5 15s-47.5 24 -65.5 42s-32 39.667 -42 65s-15 53.333 -15 84v307z" />
    <glyph glyph-name="uacute" unicode="&#xfa;" horiz-adv-x="559" 
d="M214 553l-44 55l175 131l43 -55zM57 500l93.001 -0.00195312v-272c0 -24.667 1.66699 -45.5 5 -62.5s8.66602 -31.167 15.999 -42.5c10.667 -16 25.167 -28.5 43.5 -37.5s38.5 -13.5 60.5 -13.5c40.667 0 72.5 13.833 95.5 41.5s34.5 65.834 34.5 114.501v272h94v-500
h-87v53c-14 -21.333 -34 -37.666 -60 -48.999s-55 -17 -87 -17c-31.333 0 -59.833 5 -85.5 15s-47.5 24 -65.5 42s-32 39.667 -42 65s-15 53.333 -15 84v307z" />
    <glyph glyph-name="ucircumflex" unicode="&#xfb;" horiz-adv-x="559" 
d="M439 563h-103l-55 76l-59 -76h-102l114 135h90zM57 500l93.001 -0.00195312v-272c0 -24.667 1.66699 -45.5 5 -62.5s8.66602 -31.167 15.999 -42.5c10.667 -16 25.167 -28.5 43.5 -37.5s38.5 -13.5 60.5 -13.5c40.667 0 72.5 13.833 95.5 41.5s34.5 65.834 34.5 114.501
v272h94v-500h-87v53c-14 -21.333 -34 -37.666 -60 -48.999s-55 -17 -87 -17c-31.333 0 -59.833 5 -85.5 15s-47.5 24 -65.5 42s-32 39.667 -42 65s-15 53.333 -15 84v307z" />
    <glyph glyph-name="udieresis" unicode="&#xfc;" horiz-adv-x="559" 
d="M159 683h90v-110h-90v110zM306 683h91v-110h-91v110zM57 500l93.001 -0.00195312v-272c0 -24.667 1.66699 -45.5 5 -62.5s8.66602 -31.167 15.999 -42.5c10.667 -16 25.167 -28.5 43.5 -37.5s38.5 -13.5 60.5 -13.5c40.667 0 72.5 13.833 95.5 41.5
s34.5 65.834 34.5 114.501v272h94v-500h-87v53c-14 -21.333 -34 -37.666 -60 -48.999s-55 -17 -87 -17c-31.333 0 -59.833 5 -85.5 15s-47.5 24 -65.5 42s-32 39.667 -42 65s-15 53.333 -15 84v307z" />
    <glyph glyph-name="ydieresis" unicode="&#xff;" horiz-adv-x="495" 
d="M129 683h90v-110h-90v110zM276 683h91v-110h-91v110zM497 500l-276 -667h-97l73 177l-199 490h101l147 -388l150 388h101z" />
    <glyph glyph-name="dotlessi" unicode="&#x131;" horiz-adv-x="213" 
d="M153 500v-500h-93v500h93z" />
    <glyph glyph-name="OE" unicode="&#x152;" horiz-adv-x="985" 
d="M379 76c35.333 0 68.001 6.33105 98.001 18.998s56 30.334 78 53.001s39.167 49.334 51.5 80.001s18.5 64.334 18.5 101.001c0 38 -6.16699 73.167 -18.5 105.5s-29.5 60 -51.5 83s-48.167 41 -78.5 54s-63.5 19.5 -99.5 19.5c-34.667 0 -67 -6.66699 -97 -20
s-56 -31.833 -78 -55.5s-39.333 -51.334 -52 -83.001s-19 -66.167 -19 -103.5c0 -36 6.33301 -69.5 19 -100.5s30 -57.667 52 -80s48.167 -40 78.5 -53s63.166 -19.5 98.499 -19.5zM625.001 666.998h318.002v-90h-222v-196h222v-89h-222v-203h222v-89h-318v95
c-6 -8 -11.333 -14.833 -16 -20.5s-9.5 -10.834 -14.5 -15.501s-10.333 -9 -16 -13s-12.5 -8.33301 -20.5 -13c-53.333 -30.667 -112.333 -46 -177 -46c-49.333 0 -95.333 8.66699 -138 26s-79.5 41.333 -110.5 72s-55.333 67 -73 109s-26.5 87.333 -26.5 136
c0 23.333 2.66699 47 8 71s12.666 47.333 21.999 70s20.666 44 33.999 64s28 37.667 44 53c30 28.667 66.5 51.167 109.5 67.5s87.167 24.5 132.5 24.5c25.333 0 50 -2.5 74 -7.5s46.5 -12.333 67.5 -22s40 -21.167 57 -34.5s31.5 -28.666 43.5 -45.999v97z" />
    <glyph glyph-name="oe" unicode="&#x153;" horiz-adv-x="1026" 
d="M902 281c-3.33301 25.333 -8.33203 45.498 -14.999 60.498s-18 29.833 -34 44.5c-16.667 14.667 -34.334 25.334 -53.001 32.001s-40 10 -64 10c-28 0 -53.5 -5.16699 -76.5 -15.5s-42.167 -25.166 -57.5 -44.499c-10 -12 -17.167 -24 -21.5 -36s-7.83301 -29 -10.5 -51
h332zM298.001 71.998c26 0 49.8301 4.50098 71.4971 13.501s40.334 21.333 56.001 37s28 34.334 37 56.001s13.5 45.5 13.5 71.5c0 25.333 -4.5 48.833 -13.5 70.5s-21.333 40.5 -37 56.5s-34.334 28.5 -56.001 37.5s-45.167 13.5 -70.5 13.5s-48.666 -4.33301 -69.999 -13
s-39.666 -20.834 -54.999 -36.501s-27.333 -34.334 -36 -56.001s-13 -45.5 -13 -71.5s4.33301 -49.833 13 -71.5s20.834 -40.5 36.501 -56.5s34 -28.5 55 -37.5s43.833 -13.5 68.5 -13.5zM994.998 249.999c0 -5.33301 -0.170898 -10.9941 -0.503906 -16.9941
s-0.833008 -14 -1.5 -24h-422c3.33301 -20 10 -38.333 20 -55s22.333 -31.167 37 -43.5s31.167 -21.833 49.5 -28.5s37.833 -10 58.5 -10c33.333 0 62.833 7.5 88.5 22.5s45.834 36.5 60.501 64.5h95c-12 -30.667 -25.667 -55.834 -41 -75.501s-35.333 -37.5 -60 -53.5
c-21.333 -13.333 -44.166 -23.833 -68.499 -31.5s-48.833 -11.5 -73.5 -11.5c-44 0 -84.5 10.333 -121.5 31s-67.5 50.334 -91.5 89.001c-22.667 -38 -53.167 -67.5 -91.5 -88.5s-80.833 -31.5 -127.5 -31.5c-39.333 0 -75.666 6.66699 -108.999 20
s-62.166 31.666 -86.499 54.999s-43.333 51.166 -57 83.499s-20.5 67.5 -20.5 105.5c0 37.333 6.66699 72.166 20 104.499s32 60.166 56 83.499s52.167 41.666 84.5 54.999s67.5 20 105.5 20c98.667 0 174 -39.667 226 -119c10.667 15.333 19 26.666 25 33.999
s14 15.333 24 24c45.333 40 99.666 60 162.999 60c36.667 0 70.834 -6.66699 102.501 -20s59 -31.833 82 -55.5s41.167 -51.5 54.5 -83.5s20 -66.667 20 -104z" />
    <glyph glyph-name="Ydieresis" unicode="&#x178;" horiz-adv-x="510" 
d="M132 850h93v-110h-93v110zM285 850h93v-110h-93v110zM304 0h-97v240l-207 427h109l147 -313l146 313h108l-206 -427v-240z" />
    <glyph glyph-name="florin" unicode="&#x192;" 
d="M341 518h86.001l-14 -85h-87l-58 -327c-3.33301 -19.333 -6.5 -36.166 -9.5 -50.499s-6.16699 -27.166 -9.5 -38.499s-6.83301 -21.5 -10.5 -30.5s-7.83398 -17.833 -12.501 -26.5c-10 -18.667 -24.333 -35.334 -43 -50.001c-32 -26 -72.333 -39 -121 -39
c-10.667 0 -19.167 0.5 -25.5 1.5s-13.166 2.5 -20.499 4.5l14 78h10c24 0 43.167 2.16699 57.5 6.5s26.833 12.166 37.5 23.499c6 6 11.333 13 16 21s9 18 13 30s7.83301 26.5 11.5 43.5s7.5 37.5 11.5 61.5l51 292h-87l14 85h87l6 30c11.333 56.667 33.5 101.667 66.5 135
s73.5 50 121.5 50h7.5c2.33301 0 5.16602 -0.333008 8.49902 -1l-14 -81c-29.333 -1.33301 -51.833 -10 -67.5 -26s-27.167 -43.333 -34.5 -82z" />
    <glyph glyph-name="circumflex" unicode="&#x2c6;" 
d="M409 563h-102l-55 76l-59 -76h-102l113 135h90z" />
    <glyph glyph-name="caron" unicode="&#x2c7;" 
d="M91 698h102l55 -75l59 75h102l-113 -135h-90z" />
    <glyph glyph-name="breve" unicode="&#x2d8;" 
d="M250 570c-84 0 -137.666 39.667 -160.999 119h70c19.333 -37.333 49.666 -56 90.999 -56c42 0 72.333 18.667 91 56h70c-23.333 -79.333 -77 -119 -161 -119z" />
    <glyph glyph-name="dotaccent" unicode="&#x2d9;" 
d="M205 683h90v-110h-90v110z" />
    <glyph glyph-name="ring" unicode="&#x2da;" 
d="M299 653c0 14 -4.83301 26 -14.5 36s-21.167 15 -34.5 15s-24.833 -5 -34.5 -15s-14.5 -22 -14.5 -36s4.83301 -25.833 14.5 -35.5s21.167 -14.5 34.5 -14.5s24.833 4.83301 34.5 14.5s14.5 21.5 14.5 35.5zM150 653c0 14 2.66699 27.167 8 39.5s12.5 23 21.5 32
s19.5 16 31.5 21s25 7.5 39 7.5s27 -2.5 39 -7.5s22.5 -12 31.5 -21s16.167 -19.667 21.5 -32s8 -25.5 8 -39.5c0 -28 -9.66699 -51.667 -29 -71s-43 -29 -71 -29s-51.667 9.66699 -71 29s-29 43 -29 71z" />
    <glyph glyph-name="ogonek" unicode="&#x2db;" 
d="M189 -97c0 36.667 24.332 68.9971 72.999 96.9971h62c-23.333 -13.333 -40.166 -26.166 -50.499 -38.499s-15.5 -25.166 -15.5 -38.499s5 -24.333 15 -33s22.667 -13 38 -13c6 0 11.833 0.666992 17.5 2s13.167 4 22.5 8v-59
c-8.66699 -3.33301 -17 -5.66602 -25 -6.99902s-18.333 -2 -31 -2c-33.333 0 -59.333 7.5 -78 22.5s-28 35.5 -28 61.5z" />
    <glyph glyph-name="tilde" unicode="&#x2dc;" 
d="M410 625c-10.667 -13.333 -24.6641 -24.166 -41.9971 -32.499s-35 -12.5 -53 -12.5c-12.667 0 -41 5.66699 -85 17c-11.333 2.66699 -19.166 4.33398 -23.499 5.00098s-9.16602 1 -14.499 1c-9.33301 0 -18.166 -1.33301 -26.499 -4s-19.833 -7.66699 -34.5 -15l-41 59
c19.333 13.333 35.666 22.5 48.999 27.5s26.666 7.5 39.999 7.5c6 0 12.167 -0.5 18.5 -1.5s15.166 -3.16699 26.499 -6.5c24.667 -6.66699 42.167 -11 52.5 -13s19.166 -3 26.499 -3c8.66699 0 16.5 1.16699 23.5 3.5s17.833 7.16602 32.5 14.499
c1.33301 0.666992 3.16602 1.66699 5.49902 3s5.16602 2.66602 8.49902 3.99902z" />
    <glyph glyph-name="hungarumlaut" unicode="&#x2dd;" 
d="M321 553l-50 46l135 138l49 -46zM174 553l-49 46l134 138l50 -46z" />
    <glyph glyph-name="Delta" unicode="&#x394;" horiz-adv-x="667" 
d="M153 82h359l-180 475zM24 0l259 667h97l263 -667h-619z" />
    <glyph glyph-name="Delta" unicode="&#x2206;" horiz-adv-x="667" 
d="M153 82h359l-180 475zM24 0l259 667h97l263 -667h-619z" />
    <glyph glyph-name="Omega" unicode="&#x3a9;" horiz-adv-x="666" 
d="M28 0l0.000976562 80.999h167c-30.667 18 -55.5 36 -74.5 54s-35.5 39 -49.5 63c-28.667 48 -43 103.333 -43 166c0 45.333 7.83301 87.5 23.5 126.5s37.167 72.667 64.5 101s59.5 50.666 96.5 66.999s77.167 24.5 120.5 24.5s83.5 -8.16699 120.5 -24.5
s69.167 -38.666 96.5 -66.999s48.833 -62 64.5 -101s23.5 -81.167 23.5 -126.5c0 -63.333 -13.333 -117.833 -40 -163.5s-68.667 -85.5 -126 -119.5h166v-81h-263v73c29.333 16.667 52.666 32.5 69.999 47.5s33.333 33.167 48 54.5c34.667 53.333 52 112.666 52 177.999
c0 34.667 -5.5 67.167 -16.5 97.5s-26 56.666 -45 78.999s-41.333 40 -67 53s-53.167 19.5 -82.5 19.5c-30 0 -58 -6.33301 -84 -19s-48.5 -30.167 -67.5 -52.5s-33.833 -48.666 -44.5 -78.999s-16 -63.166 -16 -98.499c0 -123.333 56.667 -216.666 170 -279.999v-73h-264z
" />
    <glyph glyph-name="Omega" unicode="&#x2126;" horiz-adv-x="666" 
d="M28 0l0.000976562 80.999h167c-30.667 18 -55.5 36 -74.5 54s-35.5 39 -49.5 63c-28.667 48 -43 103.333 -43 166c0 45.333 7.83301 87.5 23.5 126.5s37.167 72.667 64.5 101s59.5 50.666 96.5 66.999s77.167 24.5 120.5 24.5s83.5 -8.16699 120.5 -24.5
s69.167 -38.666 96.5 -66.999s48.833 -62 64.5 -101s23.5 -81.167 23.5 -126.5c0 -63.333 -13.333 -117.833 -40 -163.5s-68.667 -85.5 -126 -119.5h166v-81h-263v73c29.333 16.667 52.666 32.5 69.999 47.5s33.333 33.167 48 54.5c34.667 53.333 52 112.666 52 177.999
c0 34.667 -5.5 67.167 -16.5 97.5s-26 56.666 -45 78.999s-41.333 40 -67 53s-53.167 19.5 -82.5 19.5c-30 0 -58 -6.33301 -84 -19s-48.5 -30.167 -67.5 -52.5s-33.833 -48.666 -44.5 -78.999s-16 -63.166 -16 -98.499c0 -123.333 56.667 -216.666 170 -279.999v-73h-264z
" />
    <glyph glyph-name="pi" unicode="&#x3c0;" horiz-adv-x="606" 
d="M106 0v418h-75v81h545v-81h-74v-418h-90v418h-216v-418h-90z" />
    <glyph glyph-name="endash" unicode="&#x2013;" 
d="M33 377h434v-84h-434v84z" />
    <glyph glyph-name="emdash" unicode="&#x2014;" horiz-adv-x="755" 
d="M755 210h-755v93h755v-93z" />
    <glyph glyph-name="quoteleft" unicode="&#x2018;" horiz-adv-x="213" 
d="M60 442v100c0 36 7.5 64.167 22.5 84.5s38.5 33.833 70.5 40.5v-56c-12 -5.33301 -20.5 -11.833 -25.5 -19.5s-7.5 -18.167 -7.5 -31.5v-8h33v-110h-93z" />
    <glyph glyph-name="quoteright" unicode="&#x2019;" horiz-adv-x="213" 
d="M153 667v-100c0 -36.667 -7.5 -65 -22.5 -85s-38.5 -33.333 -70.5 -40v56c12 4.66699 20.5 11 25.5 19s7.5 18.667 7.5 32v8h-33v110h93z" />
    <glyph glyph-name="quotesinglbase" unicode="&#x201a;" horiz-adv-x="213" 
d="M153 110v-100c0 -36 -7.5 -64.167 -22.5 -84.5s-38.5 -33.833 -70.5 -40.5v56c12 5.33301 20.5 11.833 25.5 19.5s7.5 18.167 7.5 31.5v8h-33v110h93z" />
    <glyph glyph-name="quotedblleft" unicode="&#x201c;" horiz-adv-x="353" 
d="M200 442v100c0 36 7.5 64.167 22.5 84.5s38.5 33.833 70.5 40.5v-56c-12 -5.33301 -20.5 -11.833 -25.5 -19.5s-7.5 -18.167 -7.5 -31.5v-8h33v-110h-93zM60 442v100c0 36 7.5 64.167 22.5 84.5s38.5 33.833 70.5 40.5v-56c-12 -5.33301 -20.5 -11.833 -25.5 -19.5
s-7.5 -18.167 -7.5 -31.5v-8h33v-110h-93z" />
    <glyph glyph-name="quotedblright" unicode="&#x201d;" horiz-adv-x="353" 
d="M293 667v-100c0 -36.667 -7.5 -65 -22.5 -85s-38.5 -33.333 -70.5 -40v56c12 4.66699 20.5 11 25.5 19s7.5 18.667 7.5 32v8h-33v110h93zM153 667v-100c0 -36.667 -7.5 -65 -22.5 -85s-38.5 -33.333 -70.5 -40v56c12 4.66699 20.5 11 25.5 19s7.5 18.667 7.5 32v8h-33
v110h93z" />
    <glyph glyph-name="quotedblbase" unicode="&#x201e;" horiz-adv-x="353" 
d="M293 110v-100c0 -36 -7.5 -64.167 -22.5 -84.5s-38.5 -33.833 -70.5 -40.5v56c12 5.33301 20.5 11.833 25.5 19.5s7.5 18.167 7.5 31.5v8h-33v110h93zM153 110v-100c0 -36 -7.5 -64.167 -22.5 -84.5s-38.5 -33.833 -70.5 -40.5v56c12 5.33301 20.5 11.833 25.5 19.5
s7.5 18.167 7.5 31.5v8h-33v110h93z" />
    <glyph glyph-name="dagger" unicode="&#x2020;" 
d="M297 667v-176h158v-85h-158v-573h-94v573h-158v85h158v176h94z" />
    <glyph glyph-name="daggerdbl" unicode="&#x2021;" 
d="M297 667v-176h158v-85h-158v-312h158v-85h-158v-176h-94v176h-158v85h158v312h-158v85h158v176h94z" />
    <glyph glyph-name="bullet" unicode="&#x2022;" horiz-adv-x="667" 
d="M196 340c0 19.333 3.66699 37.5 11 54.5s17.166 31.833 29.499 44.5s27 22.667 44 30s34.833 11 53.5 11s36.334 -3.66699 53.001 -11s31.167 -17.333 43.5 -30s22.166 -27.5 29.499 -44.5s11 -35.167 11 -54.5s-3.66699 -37.5 -11 -54.5s-17.166 -31.833 -29.499 -44.5
s-26.833 -22.667 -43.5 -30s-34.334 -11 -53.001 -11s-36.5 3.66699 -53.5 11s-31.667 17.333 -44 30s-22.166 27.5 -29.499 44.5s-11 35.167 -11 54.5z" />
    <glyph glyph-name="ellipsis" unicode="&#x2026;" horiz-adv-x="640" 
d="M580 0h-93v110h93v-110zM367 0h-94v110h94v-110zM153 0h-93v110h93v-110z" />
    <glyph glyph-name="perthousand" unicode="&#x2030;" horiz-adv-x="1277" 
d="M1068 56c14 0 27.167 2.66602 39.5 7.99902s23 12.5 32 21.5s16.167 19.833 21.5 32.5s8 26 8 40s-2.66699 27.167 -8 39.5s-12.5 23 -21.5 32s-19.667 16.167 -32 21.5s-25.5 8 -39.5 8s-27 -2.66699 -39 -8s-22.5 -12.666 -31.5 -21.999s-16.167 -20 -21.5 -32
s-8 -25 -8 -39s2.66699 -27.333 8 -40s12.5 -23.5 21.5 -32.5s19.5 -16.167 31.5 -21.5s25 -8 39 -8zM668 55.999c14 0 27.167 2.66602 39.5 7.99902s23 12.5 32 21.5s16.167 19.833 21.5 32.5s8 26 8 40s-2.66699 27.167 -8 39.5s-12.5 23 -21.5 32
s-19.667 16.167 -32 21.5s-25.5 8 -39.5 8s-27 -2.66699 -39 -8s-22.5 -12.666 -31.5 -21.999s-16.167 -20 -21.5 -32s-8 -25 -8 -39s2.66699 -27.333 8 -40s12.5 -23.5 21.5 -32.5s19.5 -16.167 31.5 -21.5s25 -8 39 -8zM208 407.998c14 0 27.167 2.66699 39.5 8
s23 12.666 32 21.999s16.167 20.166 21.5 32.499s8 25.5 8 39.5s-2.66699 27.167 -8 39.5s-12.5 23 -21.5 32s-19.667 16.167 -32 21.5s-25.5 8 -39.5 8s-27 -2.66699 -39 -8s-22.5 -12.5 -31.5 -21.5s-16.167 -19.667 -21.5 -32s-8 -25.5 -8 -39.5s2.66699 -27.167 8 -39.5
s12.5 -23.166 21.5 -32.499s19.5 -16.666 31.5 -21.999s25 -8 39 -8zM1068 327.998c24 0 46.667 -4.5 68 -13.5s40 -21.167 56 -36.5s28.5 -33.166 37.5 -53.499s13.5 -42.166 13.5 -65.499c0 -24 -4.5 -46.333 -13.5 -67s-21.5 -38.834 -37.5 -54.501s-34.667 -28 -56 -37
s-44 -13.5 -68 -13.5s-46.5 4.5 -67.5 13.5s-39.5 21.333 -55.5 37s-28.5 33.834 -37.5 54.501s-13.5 43 -13.5 67c0 23.333 4.5 45.166 13.5 65.499s21.5 38.166 37.5 53.499s34.5 27.5 55.5 36.5s43.5 13.5 67.5 13.5zM329 -0.00195312h-58l279 667h56zM668 327.998
c24 0 46.667 -4.5 68 -13.5s40 -21.167 56 -36.5s28.5 -33.166 37.5 -53.499s13.5 -42.166 13.5 -65.499c0 -24 -4.5 -46.333 -13.5 -67s-21.5 -38.834 -37.5 -54.501s-34.667 -28 -56 -37s-44 -13.5 -68 -13.5s-46.5 4.5 -67.5 13.5s-39.5 21.333 -55.5 37
s-28.5 33.834 -37.5 54.501s-13.5 43 -13.5 67c0 23.333 4.5 45.166 13.5 65.499s21.5 38.166 37.5 53.499s34.5 27.5 55.5 36.5s43.5 13.5 67.5 13.5zM208 679.998c24 0 46.667 -4.33105 68 -12.998s40 -20.667 56 -36s28.5 -33.333 37.5 -54s13.5 -42.667 13.5 -66
c0 -24 -4.5 -46.333 -13.5 -67s-21.5 -38.834 -37.5 -54.501s-34.667 -28 -56 -37s-44 -13.5 -68 -13.5s-46.5 4.5 -67.5 13.5s-39.5 21.333 -55.5 37s-28.5 33.834 -37.5 54.501s-13.5 43 -13.5 67c0 23.333 4.5 45.166 13.5 65.499s21.5 38.166 37.5 53.499
s34.5 27.5 55.5 36.5s43.5 13.5 67.5 13.5z" />
    <glyph glyph-name="guilsinglleft" unicode="&#x2039;" horiz-adv-x="209" 
d="M163 425v-102l-67 -67l67 -67v-101l-123 121v93z" />
    <glyph glyph-name="guilsinglright" unicode="&#x203a;" horiz-adv-x="210" 
d="M47 88v103l67 66l-67 67v101l123 -121l-1 -93z" />
    <glyph glyph-name="fraction" unicode="&#x2044;" horiz-adv-x="134" 
d="M-43 0h-57l278 667h56z" />
    <glyph glyph-name="fraction" unicode="&#x2215;" horiz-adv-x="134" 
d="M-43 0h-57l278 667h56z" />
    <glyph glyph-name="trademark" unicode="&#x2122;" horiz-adv-x="779" 
d="M719 287h-66v302l-133 -302h-41l-132 302v-302h-66v380h99l120 -281l120 281h99v-380zM165 287h-67v323h-78v57h222v-57h-77v-323z" />
    <glyph glyph-name="partialdiff" unicode="&#x2202;" 
d="M244 358l-7.00098 -0.000976562c-18 -0.666992 -34.667 -5 -50 -13s-28.833 -18.5 -40.5 -31.5s-20.667 -28.167 -27 -45.5s-9.5 -35.666 -9.5 -54.999c0 -20 3.5 -38.5 10.5 -55.5s16.5 -32 28.5 -45s26.167 -23.167 42.5 -30.5s33.833 -11 52.5 -11s36 3.83301 52 11.5
s29.833 18 41.5 31s20.834 28.5 27.501 46.5s10 37.333 10 58s-3.16699 39.5 -9.5 56.5s-15.333 31.667 -27 44s-25.5 22 -41.5 29s-33.667 10.5 -53 10.5zM198.999 551.999c-12 6 -22.668 10.832 -32.001 14.499s-18.833 7 -28.5 10s-20 5.33301 -31 7l-37.5 5.5l12 79
c30 -4 57.5 -8.83301 82.5 -14.5s48 -12.667 69 -21s40.333 -18.166 58 -29.499s34.834 -24.666 51.501 -39.999c42 -38 74 -83.667 96 -137s33 -111 33 -173c0 -39.333 -5.5 -75.166 -16.5 -107.499s-26.5 -60 -46.5 -83s-44.167 -40.833 -72.5 -53.5s-59.5 -19 -93.5 -19
c-30.667 0 -59.667 5.83301 -87 17.5s-51.333 27.834 -72 48.501s-36.834 44.667 -48.501 72s-17.5 56.666 -17.5 87.999c0 30.667 5.33301 59.167 16 85.5s25.334 49.333 44.001 69s40.667 35.167 66 46.5s52.333 17 81 17c30 0 55.5 -4.83301 76.5 -14.5
s42.167 -26.5 63.5 -50.5l-8 18c-5.33301 12.667 -10.333 23.5 -15 32.5s-9.33398 17.167 -14.001 24.5s-9.5 14.166 -14.5 20.499s-11.167 13.166 -18.5 20.499c-13.333 14 -27.166 25.833 -41.499 35.5s-32.5 20.167 -54.5 31.5z" />
    <glyph glyph-name="product" unicode="&#x220f;" horiz-adv-x="709" 
d="M38 750h634v-81h-80v-838h80v-81h-253v81h82v838h-292v-838h80v-81h-251v81h80v838h-80v81z" />
    <glyph glyph-name="summation" unicode="&#x2211;" horiz-adv-x="667" 
d="M605 750v-233h-82l-8 152h-388l251 -400l-252 -438h398l5 153h85v-234h-588v91l247 428l-247 391v90h579z" />
    <glyph glyph-name="minus" unicode="&#x2212;" horiz-adv-x="549" 
d="M46 267h457v-62h-457v62z" />
    <glyph glyph-name="radical" unicode="&#x221a;" horiz-adv-x="667" 
d="M667 827v-80.999h-191l-200 -746h-115l-74 290h-87v81h160l32 -114c1.33301 -5.33301 3 -13.833 5 -25.5l7 -41.5l9 -59l2 -14h8c1.33301 9.33301 2.33301 15.666 3 18.999c2 9.33301 6 30.333 12 63l13.5 66l8.5 41l12 45.5l24 91.5l102 384h269z" />
    <glyph glyph-name="infinity" unicode="&#x221e;" horiz-adv-x="667" 
d="M185 264c19.333 0 36.668 5.66699 52.001 17s32.666 30.666 51.999 57.999c-18 27.333 -35.167 46.833 -51.5 58.5s-33.833 17.5 -52.5 17.5c-21.333 0 -39.166 -7.16699 -53.499 -21.5s-21.5 -32.5 -21.5 -54.5c0 -21.333 7.16699 -39.166 21.5 -53.499
s32.166 -21.5 53.499 -21.5zM481.002 415c-18.667 0 -36.001 -5.83105 -52.001 -17.498s-33 -30.834 -51 -57.501c18 -27.333 35 -46.833 51 -58.5s33.667 -17.5 53 -17.5c21.333 0 39 7.16699 53 21.5s21 32.5 21 54.5c0 21.333 -7.16699 39.166 -21.5 53.499
s-32.166 21.5 -53.499 21.5zM495.001 183.002c-62 0 -115.334 32.333 -160.001 97c-24.667 -32.667 -50 -56.834 -76 -72.501s-54.667 -23.5 -86 -23.5c-22.667 0 -43.667 3.83301 -63 11.5s-35.666 18.334 -48.999 32.001s-23.833 30.167 -31.5 49.5
s-11.5 40.666 -11.5 63.999c0 22.667 3.83301 43.5 11.5 62.5s18.334 35.333 32.001 49s30 24.334 49 32.001s39.833 11.5 62.5 11.5c60.667 0 113.334 -32 158.001 -96c46 64 100.333 96 163 96c22.667 0 43.5 -3.83301 62.5 -11.5s35.333 -18.334 49 -32.001
s24.334 -30.167 32.001 -49.5s11.5 -40.666 11.5 -63.999c0 -22.667 -3.83301 -43.5 -11.5 -62.5s-18.334 -35.5 -32.001 -49.5s-29.834 -24.833 -48.501 -32.5s-39.334 -11.5 -62.001 -11.5z" />
    <glyph glyph-name="integral" unicode="&#x222b;" 
d="M149 -249c-15.333 0 -27.833 0.830078 -37.5 2.49707s-20.167 4.16699 -31.5 7.5l18 80c11.333 -4.66699 20.166 -7.66699 26.499 -9s13.5 -2 21.5 -2c12.667 0 22.834 1.33301 30.501 4s13.5 8.33398 17.5 17.001s6.66699 21.167 8 37.5s2 38.5 2 66.5v573
c0 30.667 0.333008 55.5 1 74.5s2 34.833 4 47.5s5 22.834 9 30.501s9 15.5 15 23.5c26 30.667 63.333 46 112 46c12 0 23 -0.666992 33 -2s24 -4.33301 42 -9l-19 -80c-11.333 4.66699 -20 7.66699 -26 9s-13 2 -21 2c-12 0 -21.833 -1.33301 -29.5 -4s-13.667 -8 -18 -16
s-7.16602 -19.333 -8.49902 -34s-2 -34 -2 -58v-56v-530c0 -29.333 -0.333008 -53.166 -1 -71.499s-1.83398 -33.5 -3.50098 -45.5s-4.16699 -21.833 -7.5 -29.5s-7.66602 -15.167 -12.999 -22.5c-24.667 -34.667 -65.334 -52 -122.001 -52z" />
    <glyph glyph-name="approxequal" unicode="&#x2248;" 
d="M143 233c-16.667 0 -31.332 -5.16699 -43.999 -15.5s-25.667 -27.833 -39 -52.5l-51 33c19.333 44 39.833 75.5 61.5 94.5s48.167 28.5 79.5 28.5c13.333 0 28.166 -2.5 44.499 -7.5s38.166 -13.167 65.499 -24.5c14.667 -6.66699 26.667 -11.834 36 -15.501
s17.333 -6.5 24 -8.5s12.334 -3.33301 17.001 -4s10 -1 16 -1c18.667 0 34 4.5 46 13.5s25 25.5 39 49.5l53 -31c-13.333 -28 -25.5 -49 -36.5 -63s-24.5 -26 -40.5 -36c-22.667 -13.333 -46.667 -20 -72 -20c-9.33301 0 -22.333 2.33301 -39 7s-33 10.334 -49 17.001
l-53 22c-22.667 9.33301 -42 14 -58 14zM143.002 411c-16.667 0 -31.332 -5.16895 -43.999 -15.502s-25.667 -27.833 -39 -52.5l-51 33c19.333 44 39.833 75.333 61.5 94s48.167 28 79.5 28c13.333 0 28.166 -2.33301 44.499 -7s38.166 -12.667 65.499 -24
c14.667 -6.66699 26.667 -11.834 36 -15.501s17.333 -6.5 24 -8.5s12.334 -3.33301 17.001 -4s10 -1 16 -1c18.667 0 34 4.5 46 13.5s25 25.167 39 48.5l53 -31c-13.333 -27.333 -25.5 -48.166 -36.5 -62.499s-24.5 -26.166 -40.5 -35.499
c-22.667 -13.333 -46.667 -20 -72 -20c-9.33301 0 -22.333 2.33301 -39 7s-33 10.334 -49 17.001l-53 22c-22.667 9.33301 -42 14 -58 14z" />
    <glyph glyph-name="notequal" unicode="&#x2260;" 
d="M269 452l55 111h72l-54 -111h125v-81h-161l-41 -85h202v-81h-239l-53 -108h-73l52 108h-120v81h157l41 85h-199v81h236z" />
    <glyph glyph-name="lessequal" unicode="&#x2264;" 
d="M467 119v-81h-434v81h434zM467 625v-85l-338 -154l337 -153l1 -85l-434 200v77z" />
    <glyph glyph-name="greaterequal" unicode="&#x2265;" 
d="M33 38v81h434v-81h-434zM33 148v85l338 154l-337 153l-1 85l434 -200v-77z" />
    <glyph glyph-name="lozenge" unicode="&#x25ca;" horiz-adv-x="667" 
d="M333 546l-154 -212l154 -213l155 213zM333 693l260 -359l-260 -360l-259 360z" />
    <glyph glyph-name=".null" horiz-adv-x="0" 
 />
    <glyph glyph-name="exclam" horiz-adv-x="240" 
d="M167 667v-503h-94v503h94zM167 110v-110h-94v110h94z" />
    <glyph glyph-name="apple" horiz-adv-x="667" 
d="M479 528c60.667 0 108.675 -23.667 144.008 -71c-29.333 -22.667 -50 -44.667 -62 -66s-18 -46 -18 -74c0 -33.333 8.66699 -63 26 -89s41.666 -45.667 72.999 -59c-25.333 -62.667 -52.666 -111 -81.999 -145s-58.333 -51 -87 -51
c-6.66699 0 -13.334 0.833008 -20.001 2.5s-13.334 3.83398 -20.001 6.50098l-41 17c-6.66699 2.66699 -17.667 4 -33 4c-10 0 -20.167 -0.5 -30.5 -1.5s-17.166 -2.16699 -20.499 -3.5l-43 -18c-12.667 -5.33301 -25.334 -8 -38.001 -8c-18 0 -36.5 7 -55.5 21
s-37.5 34.333 -55.5 61c-26.667 39.333 -47.334 81.166 -62.001 125.499s-22 86.5 -22 126.5c0 32.667 4.66699 62.5 14 89.5s22.166 50.167 38.499 69.5s36 34.333 59 45s48.167 16 75.5 16c12 0 23.833 -1.33301 35.5 -4s25.5 -7.33398 41.5 -14.001c22 -8 38 -12 48 -12
c11.333 0 25.666 3.33301 42.999 10c14 5.33301 25.167 9.33301 33.5 12s15.666 4.83398 21.999 6.50098s12.166 2.66699 17.499 3s11.666 0.5 18.999 0.5zM332.008 518c1.33301 48.667 14.834 88.167 40.501 118.5s61.5 48.5 107.5 54.5v-10c0 -22 -4 -42.833 -12 -62.5
s-18.833 -37 -32.5 -52s-29.334 -26.833 -47.001 -35.5s-36.5 -13 -56.5 -13z" />
    </font>
</defs>
</svg>
